<svg width="70" height="83" viewBox="0 0 70 83" fill="none" xmlns="http://www.w3.org/2000/svg">
<path d="M43.4238 48.5628L48.8014 56.318L34.4611 72.4508L21.0171 56.318L29.0835 42.6001C24.6022 38.7163 15.6395 32.7412 15.6395 21.0897C15.6395 11.2307 23.1478 1.24609 34.4611 1.24609C45.7745 1.24609 54.179 7.64567 54.179 21.0897C54.179 34.5337 44.6188 39.3138 39.8388 42.6001C39.8388 42.6001 54.5636 41.7471 62.4377 46.1852C70.3118 50.6232 68.5116 81.9986 68.5116 81.9986H1.29154C0.395275 70.0483 1.6293 56.0441 4.11793 50.6665C6.19683 46.1743 12.3843 44.3926 15.9694 44.3926" stroke="white" stroke-width="2" stroke-linecap="round" stroke-linejoin="round"/>
</svg>
