<svg width="341" height="244" fill="none" xmlns="http://www.w3.org/2000/svg"><path d="M145.429 240v-90.965C100.539 160.588 9.406 156.641 4 48.427 20.412 59.98 30.59 60.39 48.408 64.3c18.654 4.093 34.467-1.47 52.131 5.792 28.79 11.836 45.313 35.619 44.89 61.132 0-40.917-11.93-100.182 59.112-122.198 50.347-15.602 102.331 8.665 132.74 24.55-17.859 0-44.927 12.113-55.547 22.703C264.996 72.972 265.27 88.47 248.5 101.5c-19.796 15.382-36.385 16.861-48.452 16.861-16.337 0-32.675 8.639-32.675 30.674" stroke="#fff" stroke-width="6.7" stroke-linecap="round" stroke-linejoin="round"/></svg>