<svg width="25" height="70" fill="none" xmlns="http://www.w3.org/2000/svg"><path opacity=".5" d="M3.5 0C1.57 0 0 1.682 0 3.75c0 2.767 3.23 6.055 3.367 6.193A.188.188 0 003.5 10a.188.188 0 00.133-.057C3.771 9.805 7 6.517 7 3.75 7 1.682 5.43 0 3.5 0zm0 5.833c-1.072 0-1.944-.934-1.944-2.083S2.428 1.667 3.5 1.667 5.444 2.6 5.444 3.75 4.572 5.833 3.5 5.833zm5.698 15.731a5.676 5.676 0 01-1.783-.284c-.28-.095-.623-.008-.793.167l-1.125.849c-1.303-.696-2.107-1.5-2.793-2.793l.824-1.096a.808.808 0 00.198-.819 5.687 5.687 0 01-.285-1.786A.803.803 0 002.64 15H.802a.803.803 0 00-.802.802C0 20.874 4.126 25 9.198 25c.442 0 .802-.36.802-.802v-1.832a.803.803 0 00-.802-.802zM5.001 30H5a5.004 5.004 0 00-5 5c0 1.094.352 2.108.952 2.93l-.623 1.858 1.922-.614A4.955 4.955 0 005 40a5.005 5.005 0 005-5c0-2.757-2.242-5-4.999-5zm2.91 7.06c-.121.341-.6.624-.982.706-.26.056-.602.1-1.75-.376-1.47-.609-2.417-2.102-2.49-2.199-.07-.097-.594-.79-.594-1.508 0-.717.364-1.067.511-1.217.12-.123.32-.18.512-.18.061 0 .117.004.167.006.147.007.22.015.317.247.121.291.415 1.008.45 1.082.036.074.071.174.021.27-.047.1-.088.145-.162.23-.074.085-.143.15-.217.241-.068.08-.144.165-.059.312.085.144.379.623.811 1.008.558.497 1.01.655 1.173.723.12.05.264.038.352-.056.112-.12.25-.32.39-.517.1-.141.227-.159.36-.109.135.047.849.4.996.473.147.074.244.109.28.17.034.063.034.353-.086.695zm1.791 13.995c.724-3.25-2.124-6.203-5.469-5.636C2.418 44.292 0 45.565 0 47.725c0 .503.139.973.38 1.378-.673 3.258 2.199 6.169 5.54 5.563 2.363 1.25 4.973-1.242 3.782-3.61zm-3.179 1.96c-.877.361-2.321.364-3.195-.094-1.246-.664-1.467-2.16-.393-2.16.81 0 .554.945 1.372 1.33.375.173 1.183.191 1.652-.125.463-.31.42-.798.169-1.03-.668-.617-2.577-.372-3.45-1.45-.379-.468-.45-1.294.016-1.892.812-1.046 3.196-1.11 4.222-.32.946.733.69 1.705-.073 1.705-.919 0-.436-1.202-1.92-1.202-1.074 0-1.497.765-.74 1.137 1.026.51 3.642.34 3.642 2.332-.002.829-.51 1.447-1.302 1.77zM5 60c-2.761 0-5 2.072-5 4.63 0 1.456.727 2.756 1.863 3.604V70l1.703-.934c.454.125.935.193 1.434.193 2.761 0 5-2.072 5-4.629C10 62.073 7.761 60 5 60zm.497 6.234l-1.273-1.358-2.485 1.358 2.734-2.9 1.304 1.357 2.453-1.358-2.733 2.901z" fill="#000"/><path d="M18.5 0C16.57 0 15 1.682 15 3.75c0 2.767 3.23 6.055 3.367 6.193A.188.188 0 0018.5 10a.188.188 0 00.133-.057C18.771 9.805 22 6.517 22 3.75 22 1.682 20.43 0 18.5 0zm0 5.833c-1.072 0-1.945-.934-1.945-2.083s.873-2.083 1.945-2.083 1.945.934 1.945 2.083-.873 2.083-1.945 2.083zm5.698 15.731a5.677 5.677 0 01-1.784-.284c-.279-.095-.622-.008-.792.167l-1.125.849c-1.303-.696-2.107-1.5-2.793-2.793l.823-1.096a.808.808 0 00.2-.819 5.686 5.686 0 01-.286-1.786.803.803 0 00-.802-.802h-1.837a.803.803 0 00-.802.802C15 20.874 19.126 25 24.198 25c.442 0 .802-.36.802-.802v-1.832a.803.803 0 00-.802-.802zM20.001 30H20a5.004 5.004 0 00-5 5c0 1.094.352 2.108.952 2.93l-.623 1.858 1.922-.614c.79.523 1.733.826 2.75.826A5.005 5.005 0 0025 35c0-2.757-2.242-5-4.999-5zm2.91 7.06c-.121.341-.6.624-.982.706-.26.056-.602.1-1.75-.376-1.47-.609-2.416-2.102-2.49-2.199-.07-.097-.594-.79-.594-1.508 0-.717.364-1.067.511-1.217.12-.123.32-.18.511-.18.062 0 .118.004.168.006.147.007.22.015.317.247.121.291.415 1.008.45 1.082.035.074.071.174.021.27-.047.1-.088.145-.162.23-.074.085-.144.15-.217.241-.068.08-.144.165-.059.312.085.144.379.623.811 1.008.558.497 1.01.655 1.173.723.12.05.264.038.352-.056.112-.12.25-.32.39-.517.1-.141.227-.159.36-.109.135.047.849.4.996.473.147.074.244.109.28.17.034.063.034.353-.086.695zm1.791 13.995c.724-3.25-2.124-6.203-5.469-5.636-1.815-1.127-4.233.146-4.233 2.306 0 .503.139.973.38 1.378-.673 3.258 2.199 6.169 5.54 5.563 2.363 1.25 4.973-1.242 3.782-3.61zm-3.179 1.96c-.877.361-2.321.364-3.195-.094-1.246-.664-1.467-2.16-.393-2.16.81 0 .554.945 1.372 1.33.375.173 1.183.191 1.652-.125.463-.31.42-.798.169-1.03-.668-.617-2.577-.372-3.45-1.45-.379-.468-.45-1.294.016-1.892.812-1.046 3.196-1.11 4.222-.32.946.733.69 1.705-.073 1.705-.919 0-.436-1.202-1.92-1.202-1.074 0-1.497.765-.74 1.137 1.026.51 3.642.34 3.642 2.332-.002.829-.51 1.447-1.302 1.77zM20 60c-2.761 0-5 2.072-5 4.63 0 1.456.727 2.756 1.863 3.604V70l1.703-.934c.454.125.935.193 1.434.193 2.761 0 5-2.072 5-4.629 0-2.557-2.239-4.63-5-4.63zm.497 6.234l-1.273-1.358-2.485 1.358 2.733-2.9 1.305 1.357 2.453-1.358-2.733 2.901z" fill="#000"/></svg>