<svg width="64" height="23" fill="none" xmlns="http://www.w3.org/2000/svg"><path d="M21.35 20.85c-1.815-.144-3.35-1.58-3.35-1.58s2.513 0 6.002-1.723c-2.68-.574-3.768-2.2-3.908-3.014.419.143 1.535.143 1.955-.144-3.127-.919-3.537-3.158-3.35-4.163 1.674.717 1.953.43 1.953.43s-3.07-2.153-1.256-5.742c4.048 4.594 7.398 4.45 8.655 4.45-.28-1.722.14-3.732 2.234-4.88 2.093-1.15 3.908 0 5.025.86.698 0 1.535-.143 2.652-.86-.14 1.148-1.303 1.722-1.954 2.296.893 0 2.047-.383 2.512-.574-.326.718-1.256 1.723-2.094 2.297.418 4.307-2.931 10.767-8.375 12.203 0 0-1.955.574-3.909.574" stroke="#000" stroke-width=".6" stroke-linecap="round" stroke-linejoin="round"/><path d="M8.969 18.868v-6.022h3.042l.58-3.818H8.969c-.242-1.126-.522-3.496.29-3.966.81-.47 2.752-.49 3.621-.44V1.244C11.045.9 7.056.656 5.78 2.419c-1.274 1.762-1.4 5.14-1.303 6.609H1v3.818h3.477V22.1c.338.343 1.71.852 4.492.147v-1.712m35.638.555V8.666h3.94V21.09h-2.425" stroke="#000" stroke-width=".6"/><path d="M59.454 21.111h3.94c.1-2.222 0-6.666 0-7.878 0-1.25-.303-4.242-4.243-4.546-3.323-.255-4.242 1.819-4.242 1.819s-.303-.91-.303-1.819h-3.333v12.424h3.636c0-2.424.182-7.515.909-8.484.91-1.212 2.582-1.128 3.333 0 .606.909.303 5.757.303 6.363" stroke="#000" stroke-width=".6" stroke-linecap="round" stroke-linejoin="round"/><circle cx="46.424" cy="4.424" r="2.124" stroke="#000" stroke-width=".6"/></svg>