<svg width="39" height="106" fill="none" xmlns="http://www.w3.org/2000/svg"><path opacity=".5" d="M6.375 0A6.382 6.382 0 000 6.375c0 4.703 5.882 10.293 6.132 10.529a.355.355 0 00.486 0c.25-.236 6.132-5.826 6.132-10.529A6.382 6.382 0 006.375 0zm0 9.917a3.546 3.546 0 01-3.542-3.542 3.546 3.546 0 013.542-3.542 3.546 3.546 0 013.542 3.542 3.546 3.546 0 01-3.542 3.542zm9.261 23.242a9.65 9.65 0 01-3.031-.483c-.475-.162-1.058-.014-1.348.284l-1.911 1.443c-2.217-1.184-3.583-2.549-4.75-4.749l1.4-1.861c.365-.364.495-.895.339-1.393a9.667 9.667 0 01-.485-3.036c0-.752-.612-1.364-1.364-1.364H1.364C.612 22 0 22.612 0 23.364 0 31.986 7.014 39 15.636 39c.752 0 1.364-.612 1.364-1.364v-3.113c0-.753-.612-1.364-1.364-1.364zM8.502 44h-.004C3.81 44 0 47.834 0 52.549c0 1.87.6 3.603 1.618 5.01l-1.06 3.177 3.268-1.05a8.392 8.392 0 004.676 1.412c4.687 0 8.498-3.835 8.498-8.549C17 47.835 13.189 44 8.502 44zm4.946 12.072c-.205.583-1.019 1.066-1.668 1.207-.444.095-1.024.17-2.977-.644-2.498-1.04-4.107-3.593-4.232-3.76-.12-.165-1.01-1.35-1.01-2.578 0-1.226.62-1.824.87-2.08.205-.21.544-.307.869-.307.105 0 .2.005.285.01.25.01.375.025.54.422.204.497.704 1.724.763 1.85.06.126.121.297.036.462-.08.171-.15.247-.275.392-.125.146-.244.257-.37.413-.114.136-.244.281-.1.532.145.246.644 1.066 1.38 1.724.948.85 1.718 1.12 1.993 1.236.205.086.45.065.6-.095.19-.206.424-.548.663-.885.17-.241.385-.271.61-.186.23.08 1.444.684 1.694.81.25.125.414.185.475.291.06.106.06.603-.146 1.186zm3.046 20.283c1.23-5.559-3.612-10.608-9.297-9.639C4.11 64.79 0 66.966 0 70.661c0 .859.236 1.663.645 2.356-1.142 5.571 3.739 10.548 9.42 9.513 4.015 2.136 8.453-2.124 6.43-6.175zm-5.405 3.352c-1.491.617-3.946.62-5.432-.161-2.117-1.136-2.494-3.694-.667-3.694 1.377 0 .941 1.615 2.332 2.274.638.296 2.01.327 2.808-.214.787-.53.715-1.364.287-1.763-1.134-1.053-4.38-.635-5.864-2.479-.645-.8-.766-2.21.026-3.234 1.381-1.788 5.435-1.897 7.178-.547 1.609 1.253 1.174 2.915-.124 2.915-1.562 0-.741-2.055-3.262-2.055-1.828 0-2.547 1.307-1.26 1.944 1.745.871 6.192.58 6.192 3.987-.004 1.418-.868 2.475-2.214 3.027zM8.5 88C3.806 88 0 91.544 0 95.915c0 2.491 1.236 4.713 3.167 6.164v3.019l2.895-1.598c.772.215 1.59.332 2.438.332 4.694 0 8.5-3.544 8.5-7.916C17 91.545 13.194 88 8.5 88zm.845 10.66L7.18 96.337 2.957 98.66l4.646-4.96 2.218 2.322 4.17-2.322-4.646 4.96z" fill="#000"/><path d="M28.375 0A6.382 6.382 0 0022 6.375c0 4.703 5.882 10.293 6.132 10.529a.355.355 0 00.486 0c.25-.236 6.132-5.826 6.132-10.529A6.382 6.382 0 0028.375 0zm0 9.917a3.546 3.546 0 01-3.542-3.542 3.546 3.546 0 013.542-3.542 3.546 3.546 0 013.542 3.542 3.546 3.546 0 01-3.542 3.542zm9.261 23.242a9.65 9.65 0 01-3.031-.483c-.475-.162-1.058-.014-1.348.284l-1.911 1.443c-2.217-1.184-3.582-2.549-4.75-4.749l1.4-1.861c.365-.364.495-.895.339-1.393a9.667 9.667 0 01-.485-3.036c0-.752-.612-1.364-1.364-1.364h-3.122c-.752 0-1.364.612-1.364 1.364C22 31.986 29.014 39 37.636 39c.752 0 1.364-.612 1.364-1.364v-3.113c0-.753-.612-1.364-1.364-1.364zM30.502 44h-.004C25.81 44 22 47.834 22 52.549c0 1.87.6 3.603 1.618 5.01l-1.06 3.177 3.268-1.05a8.392 8.392 0 004.676 1.412c4.687 0 8.498-3.835 8.498-8.549C39 47.835 35.189 44 30.502 44zm4.946 12.072c-.205.583-1.019 1.066-1.668 1.207-.444.095-1.024.17-2.977-.644-2.498-1.04-4.107-3.593-4.232-3.76-.12-.165-1.01-1.35-1.01-2.578 0-1.226.62-1.824.87-2.08.205-.21.544-.307.869-.307.105 0 .2.005.284.01.25.01.376.025.54.422.205.497.705 1.724.764 1.85.06.126.121.297.036.462-.08.171-.15.247-.275.392-.125.146-.244.257-.37.413-.114.136-.244.281-.1.532.145.246.644 1.066 1.38 1.724.948.85 1.718 1.12 1.993 1.236.205.086.45.065.6-.095.19-.206.424-.548.663-.885.17-.241.385-.271.61-.186.23.08 1.444.684 1.694.81.25.125.414.185.475.291.06.106.06.603-.146 1.186zm3.046 20.283c1.23-5.559-3.612-10.608-9.297-9.639C26.11 64.79 22 66.966 22 70.661c0 .859.236 1.663.645 2.356-1.142 5.571 3.739 10.548 9.42 9.513 4.015 2.136 8.453-2.124 6.43-6.175zm-5.405 3.352c-1.491.617-3.946.62-5.431-.161-2.118-1.136-2.495-3.694-.668-3.694 1.377 0 .941 1.615 2.332 2.274.638.296 2.01.327 2.808-.214.787-.53.715-1.364.287-1.763-1.134-1.053-4.38-.635-5.864-2.479-.645-.8-.767-2.21.026-3.234 1.381-1.788 5.435-1.897 7.178-.547 1.609 1.253 1.174 2.915-.124 2.915-1.562 0-.741-2.055-3.262-2.055-1.828 0-2.547 1.307-1.26 1.944 1.745.871 6.192.58 6.192 3.987-.004 1.418-.868 2.475-2.214 3.027zM30.5 88c-4.694 0-8.5 3.544-8.5 7.915 0 2.491 1.236 4.713 3.167 6.164v3.019l2.895-1.598c.772.215 1.59.332 2.438.332 4.694 0 8.5-3.544 8.5-7.916C39 91.545 35.194 88 30.5 88zm.845 10.66l-2.165-2.323-4.223 2.322 4.646-4.96 2.218 2.322 4.17-2.322-4.646 4.96z" fill="#000"/></svg>