<svg width="106" height="38" fill="none" xmlns="http://www.w3.org/2000/svg"><path d="M14.281 30.78V20.744h5.071l.966-6.364H14.28c-.402-1.877-.87-5.826.483-6.61 1.352-.783 4.587-.816 6.036-.734v-5.63C17.741.835 11.093.426 8.968 3.364 6.843 6.302 6.634 11.932 6.795 14.38H1v6.364h5.795v15.422c.563.57 2.85 1.42 7.486.244v-2.853" stroke="#000"/><path d="M35.584 29.082C32.559 28.842 30 26.45 30 26.45s4.188 0 10.004-2.871c-4.467-.957-6.282-3.669-6.514-5.025.698.24 2.559.24 3.258-.239-5.211-1.531-5.894-5.264-5.584-6.939 2.792 1.196 3.257.718 3.257.718s-5.119-3.59-2.094-9.571c6.747 7.657 12.33 7.417 14.425 7.417-.466-2.87.232-6.22 3.722-8.135 3.49-1.914 6.514 0 8.376 1.436 1.163 0 2.558-.24 4.42-1.436-.233 1.914-2.171 2.872-3.257 3.829 1.49 0 3.412-.638 4.187-.958-.543 1.197-2.094 2.872-3.49 3.829.697 7.178-4.886 17.945-13.958 20.338 0 0-3.258.957-6.515.957" stroke="#000" stroke-linecap="round" stroke-linejoin="round"/><path d="M74.013 32.818V12.11h6.565v20.707h-4.04" stroke="#000"/><path d="M98.758 32.854h6.565c.169-3.703 0-11.11 0-13.13 0-2.083-.505-7.071-7.07-7.576-5.54-.427-7.07 3.03-7.07 3.03s-.506-1.515-.506-3.03h-5.555v20.706h6.06c0-4.04.303-12.525 1.515-14.141 1.516-2.02 4.303-1.88 5.556 0 1.01 1.515.505 9.596.505 10.606" stroke="#000" stroke-linecap="round" stroke-linejoin="round"/><circle cx="77.04" cy="5.04" r="3.54" stroke="#000"/></svg>