<svg width="36" height="31" fill="none" xmlns="http://www.w3.org/2000/svg"><path d="M6.384 29.082C3.36 28.842.801 26.45.801 26.45s4.188 0 10.004-2.871c-4.467-.957-6.282-3.669-6.514-5.025.698.24 2.559.24 3.258-.239-5.212-1.531-5.894-5.264-5.584-6.939 2.792 1.196 3.256.718 3.256.718S.103 8.504 3.127 2.523C9.874 10.18 15.457 9.94 17.552 9.94c-.465-2.87.233-6.22 3.723-8.135 3.49-1.914 6.514 0 8.375 1.436 1.164 0 2.559-.24 4.42-1.436-.233 1.914-2.17 2.872-3.256 3.829 1.49 0 3.412-.638 4.187-.958-.543 1.197-2.094 2.872-3.49 3.829.697 7.178-4.886 17.945-13.959 20.338 0 0-3.257.957-6.514.957" stroke="#000" stroke-linecap="round" stroke-linejoin="round"/></svg>