<svg width="24" height="16" viewBox="0 0 24 16" fill="none" xmlns="http://www.w3.org/2000/svg">
<path d="M0.146484 7.6465L7.64648 0.146496C7.84181 -0.048832 8.15822 -0.048832 8.3535 0.146496C8.54883 0.341824 8.54883 0.65823 8.3535 0.853512L1.707 7.50001H23.5C23.7764 7.50001 24 7.72365 24 8.00003C24 8.2764 23.7764 8.50004 23.5 8.50004H1.707L8.3535 15.1465C8.54883 15.3418 8.54883 15.6582 8.3535 15.8535C8.25586 15.9512 8.12789 16 7.99997 16C7.87205 16 7.74413 15.9512 7.64644 15.8535L0.146437 8.35351C-0.0488434 8.15823 -0.0488434 7.84182 0.146484 7.6465Z" fill="black"/>
</svg>
