<svg width="29" height="27" viewBox="0 0 29 27" fill="none" xmlns="http://www.w3.org/2000/svg">
<path d="M11.9488 17.1341L12.1367 16.2313L11.2146 16.2313L3.03582 16.2313C2.03067 16.2313 1.1976 15.4086 1.1976 14.3688L1.1976 11.7563C1.1976 11.5198 1.2412 11.3012 1.32413 11.084L5.22738 1.88663L5.22741 1.88664L5.23024 1.8798C5.50634 1.21095 6.15739 0.750004 6.91814 0.750004L18.5651 0.750003C19.0504 0.750003 19.5172 0.944512 19.8625 1.29304C20.208 1.6418 20.4033 2.11629 20.4033 2.6125L20.4033 15.675C20.4033 16.1898 20.2009 16.6549 19.857 17.002L11.8721 25.0619L11.0356 24.2256C11.0353 24.2252 11.0349 24.2249 11.0346 24.2245C10.8196 24.0069 10.6834 23.6987 10.6834 23.3688C10.6834 23.2693 10.6924 23.1761 10.7073 23.0997L11.9488 17.1341ZM24.4915 14.925L24.4915 0.750002L28.168 0.750002L28.168 14.925L24.4915 14.925Z" stroke="black" stroke-width="1.5"/>
</svg>
