<svg width="25" height="16" viewBox="0 0 25 16" fill="none" xmlns="http://www.w3.org/2000/svg">
<path d="M24.209 7.6465L16.709 0.146496C16.5137 -0.048832 16.1972 -0.048832 16.002 0.146496C15.8066 0.341824 15.8066 0.65823 16.002 0.853512L22.6485 7.50001H0.855484C0.579109 7.50001 0.355469 7.72365 0.355469 8.00003C0.355469 8.2764 0.579109 8.50004 0.855484 8.50004H22.6485L16.002 15.1465C15.8066 15.3418 15.8066 15.6582 16.002 15.8535C16.0996 15.9512 16.2276 16 16.3555 16C16.4834 16 16.6113 15.9512 16.709 15.8535L24.209 8.35351C24.4043 8.15823 24.4043 7.84182 24.209 7.6465Z" fill="black"/>
</svg>
