<svg width="25" height="16" viewBox="0 0 25 16" fill="none" xmlns="http://www.w3.org/2000/svg">
<path d="M24.5168 7.6465L17.0293 0.146496C16.8343 -0.048832 16.5184 -0.048832 16.3235 0.146496C16.1285 0.341824 16.1285 0.65823 16.3235 0.853512L22.9588 7.50001H1.2023C0.926392 7.50001 0.703125 7.72365 0.703125 8.00003C0.703125 8.2764 0.926392 8.50004 1.2023 8.50004H22.9588L16.3235 15.1465C16.1285 15.3418 16.1285 15.6582 16.3235 15.8535C16.4209 15.9512 16.5487 16 16.6764 16C16.8041 16 16.9318 15.9512 17.0293 15.8535L24.5168 8.35351C24.7118 8.15823 24.7118 7.84182 24.5168 7.6465Z" fill="#39D5CE"/>
</svg>
