<svg width="24" height="16" viewBox="0 0 24 16" fill="none" xmlns="http://www.w3.org/2000/svg">
<path d="M23.8535 7.62736L16.3535 0.14613C16.1582 -0.0487098 15.8418 -0.0487098 15.6465 0.14613C15.4512 0.340969 15.4512 0.656583 15.6465 0.851376L22.293 7.48125H0.500015C0.22364 7.48125 0 7.70433 0 7.98001C0 8.25569 0.22364 8.47877 0.500015 8.47877H22.293L15.6465 15.1086C15.4512 15.3034 15.4512 15.6191 15.6465 15.8138C15.7441 15.9112 15.8721 15.96 16 15.96C16.1279 15.96 16.2559 15.9112 16.3536 15.8138L23.8535 8.33261C24.0488 8.13782 24.0488 7.8222 23.8535 7.62736Z" fill="#A5DC4B"/>
</svg>
