<svg width="39" height="106" viewBox="0 0 39 106" fill="none" xmlns="http://www.w3.org/2000/svg">
<path opacity="0.5" d="M6.375 0C2.85962 0 0 2.85995 0 6.375C0 11.0781 5.8818 16.668 6.13222 16.9038C6.20068 16.9678 6.28784 17 6.375 17C6.46216 17 6.54932 16.9678 6.61781 16.9038C6.8682 16.668 12.75 11.0781 12.75 6.375C12.75 2.85995 9.89038 0 6.375 0ZM6.375 9.91668C4.42222 9.91668 2.83332 8.32778 2.83332 6.375C2.83332 4.42222 4.42226 2.83332 6.375 2.83332C8.32774 2.83332 9.91668 4.42226 9.91668 6.375C9.91668 8.32774 8.32778 9.91668 6.375 9.91668Z" fill="black"/>
<path opacity="0.5" d="M15.6359 33.1586C14.5951 33.1586 13.5732 32.9958 12.6047 32.6757C12.1302 32.5139 11.5469 32.6624 11.2572 32.9598L9.34575 34.4028C7.12898 33.2195 5.76349 31.8544 4.59633 29.6543L5.99684 27.7926C6.3607 27.4292 6.49121 26.8984 6.33485 26.4004C6.01344 25.4269 5.85017 24.4054 5.85017 23.3642C5.85021 22.612 5.23826 22 4.4861 22H1.36412C0.611956 22 0 22.612 0 23.3641C0 31.9859 7.01418 39 15.6359 39C16.3881 39 17 38.388 17 37.6359V34.5226C17 33.7705 16.388 33.1586 15.6359 33.1586Z" fill="black"/>
<path opacity="0.5" d="M8.50212 44H8.49788C3.81119 44 0 47.8342 0 52.549C0 54.419 0.59925 56.1523 1.61819 57.5597L0.558875 60.7356L3.82606 59.6852C5.17013 60.5807 6.77344 61.0979 8.50212 61.0979C13.1888 61.0979 17 57.2626 17 52.549C17 47.8353 13.1888 44 8.50212 44ZM13.4481 56.0722C13.243 56.6546 12.4291 57.1376 11.7799 57.2787C11.3358 57.3738 10.7557 57.4496 8.80281 56.6353C6.30487 55.5945 4.69625 53.0416 4.57088 52.8759C4.45081 52.7103 3.5615 51.5241 3.5615 50.2974C3.5615 49.0706 4.18094 48.4732 4.43062 48.2168C4.63569 48.0063 4.97463 47.9101 5.29975 47.9101C5.40494 47.9101 5.4995 47.9154 5.5845 47.9197C5.83419 47.9304 5.95956 47.9453 6.12425 48.3418C6.32931 48.8387 6.82869 50.0655 6.88819 50.1916C6.94875 50.3177 7.00931 50.4887 6.92431 50.6543C6.84462 50.8253 6.7745 50.9011 6.64913 51.0465C6.52375 51.1918 6.40475 51.3029 6.27938 51.459C6.16462 51.5947 6.035 51.74 6.1795 51.9911C6.324 52.2369 6.82337 53.0565 7.55862 53.7148C8.50744 54.5644 9.27669 54.8358 9.55188 54.9512C9.75694 55.0367 10.0013 55.0164 10.1511 54.8561C10.3413 54.6499 10.5761 54.3079 10.8152 53.9713C10.9852 53.7298 11.1998 53.6999 11.4251 53.7853C11.6546 53.8655 12.869 54.4693 13.1187 54.5943C13.3684 54.7204 13.5331 54.7802 13.5936 54.886C13.6531 54.9918 13.6531 55.4887 13.4481 56.0722Z" fill="black"/>
<path opacity="0.5" d="M16.4941 76.355C17.724 70.7965 12.8824 65.7469 7.19659 66.7162C4.10991 64.7896 0 66.9667 0 70.6606C0 71.5196 0.235641 72.3238 0.645358 73.0171C-0.497464 78.5884 4.38377 83.5654 10.0646 82.5299C14.0804 84.6657 18.518 80.4061 16.4941 76.355ZM11.0893 79.7072C9.59758 80.3243 7.14281 80.3278 5.6575 79.5456C3.53956 78.4097 3.1631 75.8525 4.9902 75.8525C6.36725 75.8525 5.93135 77.4674 7.32184 78.1258C7.96013 78.4225 9.33222 78.4532 10.1297 77.9122C10.9173 77.382 10.8451 76.5479 10.417 76.1493C9.28269 75.096 6.03679 75.5145 4.55289 73.6704C3.90824 72.8704 3.78653 71.4591 4.57907 70.4357C5.96036 68.6478 10.0137 68.5389 11.7566 69.8891C13.3657 71.1417 12.9312 72.8043 11.6327 72.8043C10.071 72.8043 10.8918 70.7488 8.37055 70.7488C6.54274 70.7488 5.82379 72.0562 7.11097 72.6925C8.85598 73.5644 13.3027 73.2733 13.3027 76.6803C13.2992 78.098 12.4352 79.1549 11.0893 79.7072Z" fill="black"/>
<path opacity="0.5" d="M8.5 88C3.80587 88 0 91.5436 0 95.9153C0 98.4062 1.23569 100.628 3.16731 102.079V105.098L6.06156 103.5C6.834 103.715 7.65212 103.832 8.5 103.832C13.1941 103.832 17 100.288 17 95.9164C17 91.5446 13.1941 88 8.5 88ZM9.34469 98.6595L7.18038 96.3374L2.95694 98.6595L7.60325 93.699L9.82069 96.0211L13.991 93.699L9.34469 98.6595Z" fill="black"/>
<path d="M28.375 0C24.8596 0 22 2.85995 22 6.375C22 11.0781 27.8818 16.668 28.1322 16.9038C28.2007 16.9678 28.2878 17 28.375 17C28.4622 17 28.5493 16.9678 28.6178 16.9038C28.8682 16.668 34.75 11.0781 34.75 6.375C34.75 2.85995 31.8904 0 28.375 0ZM28.375 9.91668C26.4222 9.91668 24.8333 8.32778 24.8333 6.375C24.8333 4.42222 26.4223 2.83332 28.375 2.83332C30.3277 2.83332 31.9167 4.42226 31.9167 6.375C31.9167 8.32774 30.3278 9.91668 28.375 9.91668Z" fill="black"/>
<path d="M37.6359 33.1586C36.5951 33.1586 35.5732 32.9958 34.6047 32.6757C34.1302 32.5139 33.5469 32.6624 33.2572 32.9598L31.3457 34.4028C29.129 33.2195 27.7635 31.8544 26.5963 29.6543L27.9968 27.7926C28.3607 27.4292 28.4912 26.8984 28.3348 26.4004C28.0134 25.4269 27.8502 24.4054 27.8502 23.3642C27.8502 22.612 27.2383 22 26.4861 22H23.3641C22.612 22 22 22.612 22 23.3641C22 31.9859 29.0142 39 37.6359 39C38.3881 39 39 38.388 39 37.6359V34.5226C39 33.7705 38.388 33.1586 37.6359 33.1586Z" fill="black"/>
<path d="M30.5021 44H30.4979C25.8112 44 22 47.8342 22 52.549C22 54.419 22.5993 56.1523 23.6182 57.5597L22.5589 60.7356L25.8261 59.6852C27.1701 60.5807 28.7734 61.0979 30.5021 61.0979C35.1888 61.0979 39 57.2626 39 52.549C39 47.8353 35.1888 44 30.5021 44ZM35.4481 56.0722C35.243 56.6546 34.4291 57.1376 33.7799 57.2787C33.3358 57.3738 32.7557 57.4496 30.8028 56.6353C28.3049 55.5945 26.6963 53.0416 26.5709 52.8759C26.4508 52.7103 25.5615 51.5241 25.5615 50.2974C25.5615 49.0706 26.1809 48.4732 26.4306 48.2168C26.6357 48.0063 26.9746 47.9101 27.2997 47.9101C27.4049 47.9101 27.4995 47.9154 27.5845 47.9197C27.8342 47.9304 27.9596 47.9453 28.1242 48.3418C28.3293 48.8387 28.8287 50.0655 28.8882 50.1916C28.9487 50.3177 29.0093 50.4887 28.9243 50.6543C28.8446 50.8253 28.7745 50.9011 28.6491 51.0465C28.5237 51.1918 28.4047 51.3029 28.2794 51.459C28.1646 51.5947 28.035 51.74 28.1795 51.9911C28.324 52.2369 28.8234 53.0565 29.5586 53.7148C30.5074 54.5644 31.2767 54.8358 31.5519 54.9512C31.7569 55.0367 32.0013 55.0164 32.1511 54.8561C32.3413 54.6499 32.5761 54.3079 32.8152 53.9713C32.9852 53.7298 33.1998 53.6999 33.4251 53.7853C33.6546 53.8655 34.869 54.4693 35.1187 54.5943C35.3684 54.7204 35.5331 54.7802 35.5936 54.886C35.6531 54.9918 35.6531 55.4887 35.4481 56.0722Z" fill="black"/>
<path d="M38.4941 76.355C39.724 70.7965 34.8824 65.7469 29.1966 66.7162C26.1099 64.7896 22 66.9667 22 70.6606C22 71.5196 22.2356 72.3238 22.6454 73.0171C21.5025 78.5884 26.3838 83.5654 32.0646 82.5299C36.0804 84.6657 40.518 80.4061 38.4941 76.355ZM33.0893 79.7072C31.5976 80.3243 29.1428 80.3278 27.6575 79.5456C25.5396 78.4097 25.1631 75.8525 26.9902 75.8525C28.3673 75.8525 27.9314 77.4674 29.3218 78.1258C29.9601 78.4225 31.3322 78.4532 32.1297 77.9122C32.9173 77.382 32.8451 76.5479 32.417 76.1493C31.2827 75.096 28.0368 75.5145 26.5529 73.6704C25.9082 72.8704 25.7865 71.4591 26.5791 70.4357C27.9604 68.6478 32.0137 68.5389 33.7566 69.8891C35.3657 71.1417 34.9312 72.8043 33.6327 72.8043C32.071 72.8043 32.8918 70.7488 30.3706 70.7488C28.5427 70.7488 27.8238 72.0562 29.111 72.6925C30.856 73.5644 35.3027 73.2733 35.3027 76.6803C35.2992 78.098 34.4352 79.1549 33.0893 79.7072Z" fill="black"/>
<path d="M30.5 88C25.8059 88 22 91.5436 22 95.9153C22 98.4063 23.2357 100.628 25.1673 102.079V105.098L28.0616 103.5C28.834 103.715 29.6521 103.832 30.5 103.832C35.1941 103.832 39 100.288 39 95.9164C39 91.5446 35.1941 88 30.5 88ZM31.3447 98.6595L29.1804 96.3374L24.9569 98.6595L29.6033 93.699L31.8207 96.0211L35.991 93.699L31.3447 98.6595Z" fill="black"/>
</svg>
