<svg width="106" height="38" viewBox="0 0 106 38" fill="none" xmlns="http://www.w3.org/2000/svg">
<path d="M14.2811 30.7802V20.744H19.352L20.3179 14.3796H14.2811C13.8786 12.5029 13.4118 8.55365 14.764 7.77033C16.1163 6.98702 19.3514 6.95438 20.8 7.03598V1.40591C17.7413 0.834739 11.0927 0.426762 8.96777 3.36419C6.8428 6.30162 6.63352 11.9317 6.7945 14.3796H1V20.744H6.7945V36.1655C7.35823 36.7367 9.64477 37.5852 14.2811 36.4103V33.5565" stroke="black"/>
<path d="M35.5837 29.0822C32.5592 28.8429 30 26.4502 30 26.4502C30 26.4502 34.1878 26.4502 40.0041 23.5789C35.5371 22.6218 33.7224 19.9101 33.4898 18.5542C34.1878 18.7935 36.049 18.7935 36.7481 18.315C31.5366 16.7836 30.8542 13.051 31.1644 11.3761C33.9559 12.5724 34.4206 12.0939 34.4206 12.0939C34.4206 12.0939 29.302 8.50481 32.3267 2.52302C39.0735 10.1797 44.6571 9.94044 46.7517 9.94044C46.2857 7.06918 46.9844 3.71957 50.4742 1.8054C53.9639 -0.108778 56.9884 1.8054 58.8497 3.24103C60.0129 3.24103 61.4082 3.00156 63.2701 1.8054C63.0367 3.71938 61.0986 4.67666 60.0129 5.63374C61.5025 5.63374 63.4249 4.99556 64.2 4.67647C63.6571 5.87283 62.1061 7.54773 60.7102 8.50481C61.4075 15.683 55.8245 26.4502 46.7517 28.8429C46.7517 28.8429 43.4939 29.8 40.2367 29.8" stroke="black" stroke-linecap="round" stroke-linejoin="round"/>
<path d="M74.0125 32.8177V12.1111H80.578V32.8177H76.5377" stroke="black"/>
<path d="M98.7579 32.8541H105.323C105.492 29.1505 105.323 21.7433 105.323 19.7231C105.323 17.6408 104.818 12.6527 98.2528 12.1475C92.7138 11.7214 91.1823 15.1778 91.1823 15.1778C91.1823 15.1778 90.6773 13.6627 90.6773 12.1475H85.1219V32.8541H91.1823C91.1823 28.8138 91.4853 20.3291 92.6974 18.713C94.2125 16.6929 97.0001 16.8338 98.2528 18.713C99.2629 20.2282 98.7579 28.3088 98.7579 29.3189" stroke="black" stroke-linecap="round" stroke-linejoin="round"/>
<circle cx="77.0403" cy="5.0403" r="3.5403" stroke="black"/>
</svg>
