<svg width="25" height="70" viewBox="0 0 25 70" fill="none" xmlns="http://www.w3.org/2000/svg">
<path opacity="0.5" d="M3.5 0C1.56999 0 0 1.68232 0 3.75C0 6.51652 3.22922 9.80469 3.36671 9.94344C3.4043 9.98107 3.45215 10 3.5 10C3.54785 10 3.5957 9.98107 3.63331 9.94344C3.77078 9.80469 7 6.51652 7 3.75C7 1.68232 5.43001 0 3.5 0ZM3.5 5.83334C2.42789 5.83334 1.55555 4.89869 1.55555 3.75C1.55555 2.60131 2.42791 1.66666 3.5 1.66666C4.57209 1.66666 5.44445 2.60133 5.44445 3.75C5.44445 4.89867 4.57211 5.83334 3.5 5.83334Z" fill="black"/>
<path opacity="0.5" d="M9.19758 21.5639C8.58534 21.5639 7.9842 21.4681 7.41454 21.2798C7.1354 21.1846 6.79225 21.272 6.62188 21.447L5.49749 22.2958C4.1935 21.5997 3.39028 20.7967 2.70372 19.5025L3.52754 18.4074C3.74158 18.1937 3.81835 17.8814 3.72637 17.5885C3.53731 17.0158 3.44127 16.4149 3.44127 15.8024C3.44129 15.36 3.08132 15 2.63887 15H0.80242C0.359973 15 0 15.36 0 15.8024C0 20.874 4.12598 25 9.19758 25C9.64003 25 10 24.64 10 24.1976V22.3663C9.99997 21.9238 9.64 21.5639 9.19758 21.5639Z" fill="black"/>
<path opacity="0.5" d="M5.00125 30H4.99875C2.24188 30 0 32.2425 0 35C0 36.0938 0.3525 37.1075 0.951875 37.9306L0.32875 39.7881L2.25063 39.1738C3.04125 39.6975 3.98437 40 5.00125 40C7.75812 40 10 37.7569 10 35C10 32.2431 7.75812 30 5.00125 30ZM7.91062 37.0606C7.79 37.4012 7.31125 37.6837 6.92937 37.7662C6.66812 37.8219 6.32687 37.8663 5.17812 37.39C3.70875 36.7813 2.7625 35.2881 2.68875 35.1912C2.61813 35.0944 2.095 34.4006 2.095 33.6831C2.095 32.9656 2.45938 32.6163 2.60625 32.4663C2.72688 32.3431 2.92625 32.2869 3.1175 32.2869C3.17937 32.2869 3.235 32.29 3.285 32.2925C3.43188 32.2987 3.50562 32.3075 3.6025 32.5394C3.72312 32.83 4.01687 33.5475 4.05187 33.6213C4.0875 33.695 4.12313 33.795 4.07313 33.8919C4.02625 33.9919 3.985 34.0362 3.91125 34.1212C3.8375 34.2062 3.7675 34.2713 3.69375 34.3625C3.62625 34.4419 3.55 34.5269 3.635 34.6738C3.72 34.8175 4.01375 35.2969 4.44625 35.6819C5.00437 36.1787 5.45687 36.3375 5.61875 36.405C5.73937 36.455 5.88312 36.4431 5.97125 36.3494C6.08312 36.2288 6.22125 36.0288 6.36187 35.8319C6.46187 35.6906 6.58813 35.6731 6.72063 35.7231C6.85563 35.77 7.57 36.1231 7.71688 36.1962C7.86375 36.27 7.96062 36.305 7.99625 36.3669C8.03125 36.4288 8.03125 36.7194 7.91062 37.0606Z" fill="black"/>
<path opacity="0.5" d="M9.70244 51.0554C10.4259 47.8049 7.57788 44.852 4.23329 45.4188C2.4176 44.2922 0 45.5653 0 47.7254C0 48.2278 0.138612 48.6981 0.379623 49.1034C-0.292626 52.3614 2.57869 55.2719 5.92036 54.6663C8.2826 55.9154 10.8929 53.4244 9.70244 51.0554ZM6.5231 53.0157C5.64564 53.3765 4.20166 53.3786 3.32794 52.9212C2.0821 52.257 1.86065 50.7616 2.93541 50.7616C3.74544 50.7616 3.48903 51.7059 4.30697 52.0909C4.68243 52.2645 5.48954 52.2824 5.95866 51.966C6.42195 51.656 6.37949 51.1682 6.12766 50.9351C5.4604 50.3192 3.55105 50.5639 2.67817 49.4855C2.29896 49.0177 2.22737 48.1924 2.69357 47.5939C3.5061 46.5484 5.89039 46.4847 6.91562 47.2742C7.86218 48.0068 7.6066 48.979 6.84278 48.979C5.92411 48.979 6.40696 47.777 4.92385 47.777C3.84867 47.777 3.42576 48.5416 4.18292 48.9137C5.2094 49.4235 7.82514 49.2533 7.82514 51.2456C7.82305 52.0747 7.31481 52.6927 6.5231 53.0157Z" fill="black"/>
<path opacity="0.5" d="M5 60C2.23875 60 0 62.0725 0 64.6294C0 66.0863 0.726875 67.3856 1.86312 68.2344V70L3.56562 69.0656C4.02 69.1913 4.50125 69.2594 5 69.2594C7.76125 69.2594 10 67.1869 10 64.63C10 62.0731 7.76125 60 5 60ZM5.49688 66.2344L4.22375 64.8763L1.73937 66.2344L4.4725 63.3331L5.77688 64.6913L8.23 63.3331L5.49688 66.2344Z" fill="black"/>
<path d="M18.5 0C16.57 0 15 1.68232 15 3.75C15 6.51652 18.2292 9.80469 18.3667 9.94344C18.4043 9.98107 18.4521 10 18.5 10C18.5479 10 18.5957 9.98107 18.6333 9.94344C18.7708 9.80469 22 6.51652 22 3.75C22 1.68232 20.43 0 18.5 0ZM18.5 5.83334C17.4279 5.83334 16.5555 4.89869 16.5555 3.75C16.5555 2.60131 17.4279 1.66666 18.5 1.66666C19.5721 1.66666 20.4445 2.60133 20.4445 3.75C20.4445 4.89867 19.5721 5.83334 18.5 5.83334Z" fill="black"/>
<path d="M24.1976 21.5639C23.5853 21.5639 22.9842 21.4681 22.4145 21.2798C22.1354 21.1846 21.7922 21.272 21.6219 21.447L20.4975 22.2958C19.1935 21.5997 18.3903 20.7967 17.7037 19.5025L18.5275 18.4074C18.7416 18.1937 18.8183 17.8814 18.7264 17.5885C18.5373 17.0158 18.4413 16.4149 18.4413 15.8024C18.4413 15.36 18.0813 15 17.6389 15H15.8024C15.36 15 15 15.36 15 15.8024C15 20.874 19.126 25 24.1976 25C24.64 25 25 24.64 25 24.1976V22.3663C25 21.9238 24.64 21.5639 24.1976 21.5639Z" fill="black"/>
<path d="M20.0012 30H19.9988C17.2419 30 15 32.2425 15 35C15 36.0938 15.3525 37.1075 15.9519 37.9306L15.3288 39.7881L17.2506 39.1738C18.0413 39.6975 18.9844 40 20.0012 40C22.7581 40 25 37.7569 25 35C25 32.2431 22.7581 30 20.0012 30ZM22.9106 37.0606C22.79 37.4012 22.3112 37.6837 21.9294 37.7662C21.6681 37.8219 21.3269 37.8663 20.1781 37.39C18.7087 36.7813 17.7625 35.2881 17.6888 35.1912C17.6181 35.0944 17.095 34.4006 17.095 33.6831C17.095 32.9656 17.4594 32.6163 17.6063 32.4663C17.7269 32.3431 17.9262 32.2869 18.1175 32.2869C18.1794 32.2869 18.235 32.29 18.285 32.2925C18.4319 32.2987 18.5056 32.3075 18.6025 32.5394C18.7231 32.83 19.0169 33.5475 19.0519 33.6213C19.0875 33.695 19.1231 33.795 19.0731 33.8919C19.0263 33.9919 18.985 34.0362 18.9112 34.1212C18.8375 34.2062 18.7675 34.2713 18.6937 34.3625C18.6262 34.4419 18.55 34.5269 18.635 34.6738C18.72 34.8175 19.0137 35.2969 19.4462 35.6819C20.0044 36.1787 20.4569 36.3375 20.6187 36.405C20.7394 36.455 20.8831 36.4431 20.9712 36.3494C21.0831 36.2288 21.2212 36.0288 21.3619 35.8319C21.4619 35.6906 21.5881 35.6731 21.7206 35.7231C21.8556 35.77 22.57 36.1231 22.7169 36.1962C22.8638 36.27 22.9606 36.305 22.9962 36.3669C23.0312 36.4288 23.0312 36.7194 22.9106 37.0606Z" fill="black"/>
<path d="M24.7024 51.0554C25.4259 47.8049 22.5779 44.852 19.2333 45.4188C17.4176 44.2922 15 45.5653 15 47.7254C15 48.2278 15.1386 48.6981 15.3796 49.1034C14.7074 52.3614 17.5787 55.2719 20.9204 54.6663C23.2826 55.9154 25.8929 53.4244 24.7024 51.0554ZM21.5231 53.0157C20.6456 53.3765 19.2017 53.3786 18.3279 52.9212C17.0821 52.257 16.8606 50.7616 17.9354 50.7616C18.7454 50.7616 18.489 51.7059 19.307 52.0909C19.6824 52.2645 20.4895 52.2824 20.9587 51.966C21.4219 51.656 21.3795 51.1682 21.1277 50.9351C20.4604 50.3192 18.5511 50.5639 17.6782 49.4855C17.299 49.0177 17.2274 48.1924 17.6936 47.5939C18.5061 46.5484 20.8904 46.4847 21.9156 47.2742C22.8622 48.0068 22.6066 48.979 21.8428 48.979C20.9241 48.979 21.407 47.777 19.9239 47.777C18.8487 47.777 18.4258 48.5416 19.1829 48.9137C20.2094 49.4235 22.8251 49.2533 22.8251 51.2456C22.8231 52.0747 22.3148 52.6927 21.5231 53.0157Z" fill="black"/>
<path d="M20 60C17.2387 60 15 62.0725 15 64.6294C15 66.0863 15.7269 67.3856 16.8631 68.2344V70L18.5656 69.0656C19.02 69.1913 19.5013 69.2594 20 69.2594C22.7613 69.2594 25 67.1869 25 64.63C25 62.0731 22.7613 60 20 60ZM20.4969 66.2344L19.2237 64.8763L16.7394 66.2344L19.4725 63.3331L20.7769 64.6913L23.23 63.3331L20.4969 66.2344Z" fill="black"/>
</svg>
