<svg width="64" height="23" viewBox="0 0 64 23" fill="none" xmlns="http://www.w3.org/2000/svg">
<path d="M21.3502 20.8493C19.5355 20.7057 18 19.2701 18 19.2701C18 19.2701 20.5127 19.2701 24.0024 17.5474C21.3223 16.9731 20.2335 15.3461 20.0939 14.5325C20.5127 14.6761 21.6294 14.6761 22.0488 14.389C18.922 13.4702 18.5125 11.2306 18.6986 10.2256C20.3735 10.9435 20.6523 10.6563 20.6523 10.6563C20.6523 10.6563 17.5812 8.50289 19.396 4.91381C23.4441 9.50783 26.7943 9.36427 28.051 9.36427C27.7714 7.64151 28.1906 5.63174 30.2845 4.48324C32.3784 3.33473 34.1931 4.48324 35.3098 5.34462C36.0078 5.34462 36.8449 5.20094 37.962 4.48324C37.822 5.63163 36.6592 6.20599 36.0078 6.78025C36.9015 6.78025 38.055 6.39733 38.52 6.20588C38.1943 6.92369 37.2637 7.92864 36.4261 8.50289C36.8445 12.8098 33.4947 19.2701 28.051 20.7057C28.051 20.7057 26.0963 21.28 24.142 21.28" stroke="black" stroke-width="0.6" stroke-linecap="round" stroke-linejoin="round"/>
<path d="M8.96864 18.8681V12.8464H12.0112L12.5908 9.02773H8.96864C8.72717 7.90172 8.44706 5.53219 9.25841 5.0622C10.0698 4.59221 12.0109 4.57263 12.88 4.62159V1.24354C11.0448 0.900843 7.05564 0.656057 5.78066 2.41851C4.50568 4.18097 4.38011 7.55902 4.4767 9.02773H1V12.8464H4.4767V22.0993C4.81494 22.442 6.18686 22.9511 8.96864 22.2462V20.5339" stroke="black" stroke-width="0.6"/>
<path d="M44.607 21.0895V8.66562H48.5463V21.0895H46.1221" stroke="black" stroke-width="0.6"/>
<path d="M59.4543 21.1114H63.3936C63.4946 18.8892 63.3936 14.4449 63.3936 13.2328C63.3936 11.9834 63.0905 8.99055 59.1512 8.68747C55.8278 8.43176 54.9089 10.5056 54.9089 10.5056C54.9089 10.5056 54.6059 9.59659 54.6059 8.68747H51.2727V21.1114H54.9089C54.9089 18.6872 55.0907 13.5964 55.818 12.6268C56.7271 11.4147 58.3996 11.4992 59.1512 12.6268C59.7573 13.5359 59.4543 18.3842 59.4543 18.9903" stroke="black" stroke-width="0.6" stroke-linecap="round" stroke-linejoin="round"/>
<circle cx="46.4242" cy="4.42418" r="2.12418" stroke="black" stroke-width="0.6"/>
</svg>
