<svg width="36" height="31" viewBox="0 0 36 31" fill="none" xmlns="http://www.w3.org/2000/svg">
<path d="M6.38445 29.0822C3.35996 28.8429 0.800781 26.4502 0.800781 26.4502C0.800781 26.4502 4.98854 26.4502 10.8049 23.5789C6.33792 22.6218 4.52323 19.9101 4.29058 18.5542C4.98854 18.7935 6.84976 18.7935 7.54883 18.315C2.33741 16.7836 1.65496 13.051 1.96516 11.3761C4.75668 12.5724 5.22135 12.0939 5.22135 12.0939C5.22135 12.0939 0.102822 8.50481 3.12747 2.52302C9.87425 10.1797 15.4579 9.94044 17.5525 9.94044C17.0865 7.06918 17.7851 3.71957 21.2749 1.8054C24.7647 -0.108778 27.7892 1.8054 29.6504 3.24103C30.8137 3.24103 32.2089 3.00156 34.0709 1.8054C33.8375 3.71938 31.8994 4.67666 30.8137 5.63374C32.3032 5.63374 34.2257 4.99556 35.0008 4.67647C34.4579 5.87283 32.9069 7.54773 31.511 8.50481C32.2083 15.683 26.6253 26.4502 17.5525 28.8429C17.5525 28.8429 14.2947 29.8 11.0375 29.8" stroke="black" stroke-linecap="round" stroke-linejoin="round"/>
</svg>
