<svg width="29" height="27" viewBox="0 0 29 27" fill="none" xmlns="http://www.w3.org/2000/svg">
<path d="M28.4703 11.7563C28.4703 10.3063 27.3056 9.14375 25.8821 9.14375L17.7034 9.14375L18.9457 3.17419C18.9716 3.04356 18.9845 2.89987 18.9845 2.75619C18.9845 2.22062 18.7645 1.72425 18.4151 1.37156L17.0434 0L8.52815 8.59512C8.04933 9.07844 7.76463 9.73156 7.76463 10.45L7.76463 23.5125C7.76463 24.2054 8.03731 24.8699 8.5227 25.3598C9.00808 25.8498 9.6664 26.125 10.3528 26.125L21.9998 26.125C23.0739 26.125 23.9927 25.4719 24.3809 24.5314L28.2891 15.3223C28.4056 15.0219 28.4703 14.7084 28.4703 14.3687V11.7563ZM0 26.125H5.17642L5.17642 10.45H0L0 26.125Z" fill="black"/>
</svg>
