<svg xmlns="http://www.w3.org/2000/svg" xmlns:xlink="http://www.w3.org/1999/xlink"><defs><filter id="filter0_d" x="0" y="0" width="58.989" height="77" filterUnits="userSpaceOnUse" color-interpolation-filters="sRGB"><feFlood flood-opacity="0" result="BackgroundImageFix"/><feColorMatrix in="SourceAlpha" values="0 0 0 0 0 0 0 0 0 0 0 0 0 0 0 0 0 0 127 0"/><feOffset dy="4"/><feGaussianBlur stdDeviation="2"/><feColorMatrix values="0 0 0 0 0 0 0 0 0 0 0 0 0 0 0 0 0 0 0.25 0"/><feBlend in2="BackgroundImageFix" result="effect1_dropShadow"/><feBlend in="SourceGraphic" in2="effect1_dropShadow" result="shape"/></filter></defs><symbol id="header-logo"><path fill-rule="evenodd" clip-rule="evenodd" d="M.152 25.661c.193 1.487.331 2.23.607 3.006.578 1.843 1.598 3.233 2.975 4.138 1.488 1.002 3.803 1.584 6.145 1.584 3.224 0 5.649-.938 7.247-2.748 1.268-1.455 1.93-3.523 1.93-5.948 0-2.973-.993-5.139-2.977-6.593-1.047-.776-2.37-1.326-4.464-1.843-3.251-.776-3.251-.776-3.802-1.067-.882-.485-1.296-1.164-1.296-2.069 0-1.486 1.24-2.553 2.921-2.553 2.095 0 3.086.873 3.417 2.974l5.842-.744c-.358-1.842-.689-2.812-1.378-3.879-1.488-2.424-4.16-3.685-7.66-3.685C4.23 6.234.813 9.37.813 14.348c0 2.618.937 4.784 2.673 6.206 1.02.84 1.902 1.228 4.437 1.875 2.865.776 3.554 1.002 4.133 1.325.716.388 1.157 1.26 1.157 2.263 0 1.81-1.267 2.909-3.389 2.909-1.405 0-2.562-.55-3.224-1.52-.413-.646-.606-1.228-.716-2.391l-5.732.646zm33.256 8.113l5.101-16.887v16.888h4.988V6.88H36.83l-5.54 17.94-5.515-17.94h-6.72v26.894h4.988V16.81l5.1 16.963h4.265zm53.473 0l-3.362-9.05c-.881-2.295-1.515-3.039-2.92-3.556 1.35-.517 1.928-.873 2.617-1.616 1.075-1.196 1.626-3.006 1.626-5.301 0-4.655-2.59-7.37-7.054-7.37h-11.05v26.894h5.484V23.592h2.81c.882 0 1.571.26 2.15.873.689.711 1.02 1.455 1.901 4.267l1.35 5.043h6.448zm-14.66-15.709v-5.754h4.327c1.708 0 2.59.938 2.59 2.748 0 1.842-.992 3.006-2.618 3.006h-4.298zm-19.98 5.047h5.717l-.272-1.006-2.617-9.698-2.563 9.698-.266 1.006zm7.24 5.643h-8.73l-1.325 5.02h-5.93c1.976-6.528 0 0 8.124-26.894h7.03l8.088 26.894h-5.901l-1.356-5.02zm38.422-16.153h7.413V6.881H84.842v5.721h7.412v21.173h5.65V12.602z"/><path fill-rule="evenodd" clip-rule="evenodd" d="M113.411 38.559L125.391 0h-11.98l-11.645 38.559h11.645z"/><path fill-rule="evenodd" clip-rule="evenodd" d="M127.512 6.88v26.895h5.621V6.88h-5.621zm21.024 5.722h7.413V6.881h-20.474v5.721h7.413v21.173h5.648V12.602z"/></symbol><symbol id="intro-world"><path d="M1645.76 826.709c-9.51-.374-9.8 9.653-9.51 13.769 0 7.782 4.27 11.673 10.93 12.197 6.66.524 10.1-10.027 9.8-14.891-.3-4.864-1.72-10.7-11.22-11.075zM1623.16 850.582c-5.84.149-28.44 28.135-28.44 32.849 0 5.687 5.54 9.653 12.05 10.327 6.51.673 27.91-28.136 29.48-33.523 1.57-5.388-7.26-9.803-13.09-9.653zM1376.22 810.472c3.44-2.095 10.4 2.993 14.59 2.095 4.64-5.537 7.86-14.591 23.05-13.918 15.19.674 16.91 15.939 25.22 16.463 8.3.523 20.58-15.49 27.01-10.177 6.44 5.313 1.2 19.156 2.1 28.435.89 9.278 7.63 13.394 17.58 15.938 9.95 2.544 28.66-6.061 31.2-9.952 2.55-3.891.45-21.925 1.65-26.789 1.2-4.863 6.66-4.19 10.63-7.632 3.96-3.442 4.11-50.135 0-56.645-4.12-6.51-29.64-21.476-31.21-26.564-1.57-5.088 2.77-16.687 1.57-20.353-1.19-3.667-4.56.673-7.63-3.667-3.07-4.34-4.86-22.897-9.43-22.897-4.56 0-.97 29.108-2.09 33.074-1.12 3.966-9.95 3.442-16.17 1.122-6.21-2.32-15.04-33.523-25.21-34.196-10.18-.674-13.85 13.394-15.04 15.265-1.2 1.87-5.76.449-7.41 0-1.65-.449.97-6.286-4.12-7.408-5.08-1.123-11.3 9.503-13.84 12.271-2.54 2.769-.3 15.939-1.65 21.252-1.34 5.312-10.62 8.081-13.84 10.625-3.22 2.544-21.32-.673-26.64 0-5.31.674-7.56 7.408-9.65 11.075-2.1 3.666-1.42 33.523 0 37.189 1.42 3.667 9.65 5.089 9.65 9.953 0 4.863 2.32 35.618 8.38 35.842 6.06.225 7.86-8.306 11.3-10.401zM1503.43 855.371c-8.15 0-8 9.728-8.3 12.646 0 3.741 4.56 9.803 10.4 10.775 5.84.973 8.01-7.034 9.28-11.897 1.27-4.864-3.22-11.524-11.38-11.524zM1432.72 623.624c8.68 5.762 22.6-.449 30.31 5.313 2.92 5.313 0 19.156 0 25.442 0 6.285 9.58 11.074 17.28 11.074 7.71 0 13.92-9.653 17.74-11.074 3.81-1.422 6.28 9.129 11.52 11.074 5.24 1.946.52-21.625 0-26.489-.52-4.864-11.97-15.34-18.26-18.258-6.28-2.918-8.15 2.918-14.36 2.918-6.22 0-12.05-15.863-16.84-18.258-4.79-2.394-27.39-2.394-33.15 0-5.76 2.395-2.92 12.497 5.76 18.258zM1388.95 608.734c-9.21-.749-14.14 10.85-13.47 18.033 0 6.959 5.54 13.245 13.47 13.245 7.93 0 10.62-13.245 11.3-18.557.67-5.313-2.1-11.973-11.3-12.721zM1343.53 578.881c-3.37 2.17-14.67-.674-18.56 1.496-6.74 11.823 6.28 30.53 9.13 33.673 2.84 3.143 15.64.225 20.72 0 5.09-.224 16.09-14.666 19.01-18.557 2.92-3.891-.22-33.673 0-38.013.23-4.34-8.45-13.694-10.85-12.945-2.39.748-.45 9.353-1.65 12.945-1.19 3.592-14.44 19.231-17.8 21.401zM1399.04 551.718c-7.48.224-8.6 11.299-6.73 16.611.75 3.892 6.73 6.286 10.85 6.286 4.12 0 6.96-8.456 7.26-13.02.3-4.565-3.89-10.102-11.38-9.877zM1260.99 546.702c-2.4 1.945.22 16.088 2.39 23.271 2.4 3.368 24.77 20.728 26.49 27.238 1.72 6.51-1.2 11.972 0 17.061 1.2 5.088 11.3 14.666 16.61 16.836 5.32 2.17 1.65-18.258 1.2-21.925-.45-3.666-5.09-2.843-6.51-7.183s-1.72-14.667-2.17-19.007c-.45-4.34-35.62-38.237-38.01-36.291zM1368.74 658.049c-.3-6.285-26.41-29.108-30.53-28.883-4.56 0-8.9 8.904-8.15 13.02.75 4.115 25.21 29.332 30.53 30.305 5.31.973 8.45-8.156 8.15-14.442zM1304.99 547.152c-5.09.225-5.99 7.707-6.21 12.721 1.49 6.211 6.21 10.85 10.77 10.85 4.57 0 5.54-10.85 5.09-14.891-.45-4.041-4.56-8.904-9.65-8.68zM1029.99 702.646c-1.94 3.667.45 8.156 0 14.741-3.66 4.864-12.04 8.83-12.79 15.939s3.66 22.149 14.51 28.285c10.85 6.136 15.64-5.163 17.89-9.129 2.24-3.966 3.44-69.441-2.25-70.189-5.68-.748-15.41 16.687-17.36 20.353zM1431 404.38c-4.41 3.592-9.88 11.731-4.79 16.163 4.79 4.171 14.37 0 18.41-2.021 4.04-2.02 15.94-18.782 19.16-20.128 3.21-1.347 11 .748 16.01 0 5.01-.749 9.73-7.408 11.52-11.225 1.8-3.816.23-26.564 0-30.754-.22-4.191-12.12-13.619-13.99-11.823-1.87 1.796.82 24.618 0 28.809-.82 4.19-6.73 6.585-10.18 8.755-3.44 2.17-11-1.347-13.77 0-2.76 1.347-17.95 18.632-22.37 22.224zM1493.63 323.64c-6.51.225-9.52 7.965-7.93 14.068 1.43 5.474 6.29 8.68 11.6 8.68s6.96-8.68 6.96-13.32c0-4.639-4.12-9.652-10.63-9.428z"/><path d="M816.735 352.225c-7.408 2.245-14.217 10.851-18.258 19.98-2.893 4.315-9.862 13.214-14.591 14.292-5.912 1.347-19.306-1.347-25.517-7.034-6.211-5.687 1.871-36.441 6.211-40.108 4.34-3.667 30.156-1.871 33.897-4.864 3.741-2.993-2.394-20.203 0-25.516 2.395-5.313 46.319-44.149 50.509-46.693 4.191-2.544 33.823-3.218 43.924-3.667 10.102-.449 15.19-14.217 19.755-18.782 4.565-4.564-2.095-34.57 0-40.332 2.095-5.762 11.524-11.748 11.299-15.115-.224-3.368-8.306-2.096-13.394-3.068-5.088-.973-16.537 16.387-21.251 22.598-4.715 6.211-.599 20.727 0 31.053.598 10.327-21.925 11.823-26.864 12.123-4.938.299-9.204-6.959-13.469-6.136-.514.099-2.17 1.945 0 3.442 4.579 3.158 1.946 9.129.748 11.224-1.197 2.095-6.734 2.32-11.822-2.544-5.089-4.864.523-9.054 2.244-9.428 1.721-.375 2.619-1.198 2.245-3.817-.374-2.619-5.687-2.319-10.7-8.605-5.014-6.285-2.47-38.761 1.571-46.842 4.041-8.082 56.496-56.496 62.482-59.788 5.986-3.293 29.033-1.497 33.747 0 4.715 1.496 2.694 5.163 8.98 9.727 6.285 4.565 19.156 0 26.414 1.198 7.259 1.197 13.32 11.448 17.959 14.891 4.639 3.442.748 12.571-3.292 13.918-4.041 1.346-7.034-1.721-11.973.972-4.939 2.694 1.871 10.701 5.911 14.517 4.041 3.816 31.5 2.095 41.98 0 10.48-2.095 14.89-17.585 22.75-20.054 7.85-2.469 44.15.374 54.25 0 10.1-.374 16.98-21.775 26.19-25.442 9.2-3.666 40.48 1.946 53.5 1.198 13.02-.749 55.75-59.04 61.28-62.257 5.54-3.218 61.14-.973 72.06 2.095 10.93 3.068 25.74 25.217 32.48 29.781 6.73 4.565 67.79-1.571 74.68 1.721 6.88 3.293 13.17 15.864 19.08 20.204 5.91 4.34 118.6-3.966 124.14 0 5.54 3.966 10.92 12.796 15.86 16.462 4.94 3.667 61.36-2.095 68.77 0 7.41 2.096 11.67 6.66 14.52 11.075 2.84 4.415 1.94 25.442 0 31.727-1.95 6.286-19.08 23.122-25.37 26.564-6.29 3.442-20.43-.374-26.34 0-5.75.364-7.6 3.628-10.8 9.243l-.27.485c-3.37 5.911.15 53.652-1.58 58.067-1.72 4.414-27.68 30.155-33.82 23.122-6.13-7.034-2.62-42.054-.97-54.999 1.65-1.871 17.06-27.762 10.92-34.047-6.13-6.286-22.89 8.455-29.78 13.544-6.88 5.088-48.34-.524-52.38 1.197-4.04 1.721-20.58 17.211-21.17 23.496-.6 6.286 8.23 9.503 11.67 15.49 3.44 5.986 1.12 45.645 0 50.958-1.12 5.312-20.05 21.625-22.37 23.496-2.32 1.87-8.24-2.245-14.52 0-6.29 2.245-19.68 12.421-19.68 18.707 0 6.285 6.51 5.537 8.01 11.673 1.49 6.136-7.04 16.612-14.15 16.088-7.11-.524-17.58-25.816-25.36-26.564-7.79-.748-18.19 8.605-20.06 18.109-1.87 9.503 26.94 29.407 29.78 34.196 2.85 4.789 1.35 18.707 0 27.537-1.34 8.83-39.95 43.325-43.92 45.87-3.97 2.544-23.72-1.347-28.14 0-4.41 1.347-11.59 5.687-11.82 11.448-.22 5.762 7.48 11.449 8.46 16.388.97 4.938-4.04 21.775-12.05 22.149-8.01.374-29.03-30.53-32.33-32.251-3.29-1.721-10.7.599-14.29-.973-3.59-1.571-7.63-8.006-14.14-14.891-6.51-6.884-20.05-9.877-27.24-8.755-7.18 1.123-24.17 23.422-33.22 34.721-9.06 11.299-6.81 30.979-15.87 31.727-9.05.748-21.92-19.156-23.79-24.918-1.87-5.762-3.82-31.353-3.82-38.536 0-7.184-9.8-15.64-18.11-19.755-8.3-4.116-26.04 0-33.22 0s-5.31-7.408-11.37-10.551-21.85.823-28.74 0c-6.88-.823-16.16-13.993-20.13-16.687-3.96-2.693-9.5-.673-10.7 3.742-1.19 4.415 25.15 21.476 38.91 23.496 13.77 2.02 12.13 25.965 8.09 34.047-4.05 8.081-20.66 19.455-28.74 30.006-8.08 10.551-21.92 14.217-37.71 9.353-15.791-4.863-14.594-31.652-16.614-42.577-2.02-10.925-13.768-16.612-20.204-26.714-6.435-10.101-3.292-36.89-14.591-36.89s-4.864 22.299-3.667 32.775c1.198 10.476 26.714 24.319 27.911 30.829 1.198 6.51.449 18.632 6.51 33.224 6.061 14.591 37.265 29.183 48.635 29.183 11.38 0 15.42-22.673 17.81-19.83 2.4 2.844 2.47 32.401 0 37.639-2.47 5.238-12.57 16.238-17.81 19.455-5.23 3.218-10.55-.374-16.61 0-6.06.375-27.984 28.36-27.984 37.265 0 8.905 6.061 15.415 11.748 22.673 5.686 7.258 2.466 40.108 0 47.441-2.469 7.333-25.067 20.653-28.734 28.734-3.667 8.082 2.02 34.496 0 40.931-2.02 6.435-14.591 21.476-23.496 25.517-8.905 4.04-46.992 1.272-60.012 0-13.02-1.272-27.537-27.911-30.755-34.796-3.217-6.884 1.197-69.29 0-75.352-1.197-6.061-10.102-7.333-13.394-15.04-3.292-7.707 0-79.019 0-86.726 0-7.707-12.945-21.027-27.911-22.673-14.966-1.646-21.925 10.925-30.38 15.789-8.456 4.864-27.612 1.646-35.319 0-7.708-1.646-36.442-34.795-43.326-43.7-6.884-8.905-1.646-55.523 0-64.053 1.646-8.53 26.714-28.36 34.047-30.006 7.333-1.646 2.844-12.946 5.238-21.476 2.395-8.53 9.354-16.986 16.238-23.047s20.652 0 29.557 0c8.905 0 1.646-11.748 13.394-14.217 11.748-2.47 31.578-3.218 35.618 2.469 4.041 5.687 13.395 32.401 31.653 34.795 18.258 2.395 26.339-13.319 40.108-13.319 13.768 0 17.435 7.258 40.931 10.925 23.496 3.666 17.36-12.572 16.986-20.653-.374-8.082-23.87-5.687-33.224-11.748-9.353-6.061-2.02-19.081 0-23.122 2.021-4.041 19.081-16.163 25.142-16.163 6.062 0 9.728 6.36 20.204 8.456 10.476 2.095 21.921-2.096 23.941-11.299 2.02-9.204-16.608-20.279-25.961-20.653-9.354-.374-11.299 12.122-18.184 12.122-6.884 0-8.156-9.353-13.394-8.081-5.238 1.272-16.238 15.788-19.006 19.455-2.769 3.667 3.592 11.299 0 16.163-3.592 4.864-10.177 0-14.218 4.041-4.04 4.04-1.646 13.394-8.53 13.394-6.884 0-8.081-13.394-8.456-22.299-.374-8.904-30.829-33.224-34.495-26.714-3.667 6.51 22.747 21.775 24.319 26.714 1.571 4.939 0 5.313-4.041 8.905-4.041 3.591-4.415 10.925-12.122 13.394 2.843-12.571-23.496-40.108-28.809-40.108-5.313 0-6.435 7.258-9.728 9.728-3.292 2.469-7.782.898-15.19 3.142zM751.485 262.43c-2.619 1.646-2.02 19.68 0 22.972 6.286 1.946 14.741-2.918 17.061-5.537 2.32-2.619.674-20.727-2.32-22.374-2.993-1.646-12.122 3.293-14.741 4.939z"/><path d="M782.162 235.194c-2.215-1.676-2.32-10.85-4.639-10.85-8.156 0-7.408 10.85-7.109 15.639.299 4.789 1.497 8.306 5.388 10.177 3.891 1.87.898 5.686 1.721 10.7.823 5.013 8.156 7.707 8.156 10.925 0 3.218.673 2.619-5.837 7.408s-8.231 14.292-7.931 16.612c.299 2.319 5.612 3.517 5.612 0s5.387-6.51 11.897-6.061c6.511.449 16.538-4.789 16.986-17.959.449-13.17-16.836-16.238-16.986-19.605-.149-3.367 2.021-4.34 3.667-5.912 1.646-1.571 1.813-5.775 0-8.605-2.36-3.683-8.156-.374-10.925-2.469zM705.539 171.965c-11.224.374-13.544 9.203-13.918 17.584 0 2.669 1.826 8.875 9.129 12.347 5.612 2.668 15.383 2.495 21.775-3.517 7.558-7.109 8.032-12.523 5.014-19.605-3.527-8.273-10.776-7.184-22-6.809zM514.203 22.306c-6.585 1.047-15.684 18.224-28.285 26.713-10.578 7.128-28.046-4.938-29.333 14.368-.663 9.952 8.381 12.646 13.395 16.537 5.013 3.89 35.842 0 43.475 2.095 7.632 2.095 35.094 31.428 37.713 39.06 2.619 7.633-.748 34.047 0 40.333.749 6.285 15.49 10.999 16.014 15.19.523 4.19-3.966 12.795-3.667 18.333.299 5.537 16.462 20.727 20.428 24.918 3.966 4.19 19.381 10.999 29.033 6.285 9.653-4.714 2.395-26.265 3.443-31.203 1.047-4.939 34.046-33 38.761-35.619 4.714-2.619 17.809-.523 25.142 0 7.333.524 17.061-14.666 19.68-19.38 2.619-4.714-1.347-25.142 0-30.904 1.347-5.762 12.272-17.285 12.272-22.523 0-5.239-8.082-13.395-8.606-21.027-.523-7.633 18.333-21.7 22.524-26.714 4.19-5.013 1.047-14.367-1.347-18.333-2.395-3.966-41.38.524-49.537 0-8.156-.524-12.795-15.714-16.462-18.857-3.666-3.142-57.393-.748-62.856 0-5.462.749-14.142 18.857-19.904 20.728-5.762 1.87-55.298-1.048-61.883 0zM449.927 45.503c-2.918 1.795-10.251 3.142-20.877 5.163-9.428 1.793-8.531 16.163-9.428 30.605-.898 14.442-24.394 15.564-40.258 13.768-15.864-1.796-16.762-31.428-15.041-39.06 1.722-7.633 20.728-29.333 30.905-32.925 15.904-5.613 62.631-1.197 68.168 0 5.537 1.198 2.043 8.321 0 12.945-2.601 5.89-10.551 7.708-13.469 9.504zM319.276 110.23c.17-7.561 8.38-13.394 11.224-13.394 3.292 0 13.095 7.558 13.095 15.19 0 6.959-9.279 13.469-15.116 13.32-5.836-.15-9.428-5.164-9.203-15.116zM379.67 197.777c.171-7.562 8.381-13.394 11.224-13.394 3.293 0 13.095 7.557 13.095 15.19 0 6.959-9.278 13.469-15.115 13.319-5.837-.149-9.429-5.163-9.204-15.115zM432.641 102.296c-3.592-2.17-28.734-2.169-45.72 2.17-10.83 2.768-17.271 14.517-19.007 21.401-2.17 8.606 13.993 17.884 17.884 21.476 3.891 3.592 29.707.374 33.598 1.422 3.891 1.047 10.401 6.061 10.401 11.074 0 5.014-1.421 16.762 0 23.945 1.422 7.184 30.007 30.755 41.081 31.428 11.075.674 14.292-12.87 14.666-19.979.375-7.109-10.7-17.51-11.448-24.693-.749-7.184 10.401-14.966 8.605-18.932-1.796-3.966-46.468-47.142-50.06-49.312zM341.956 92.936c.12-5.318 5.877-9.42 7.871-9.42 2.309 0 9.183 5.315 9.183 10.684 0 4.894-6.507 9.473-10.6 9.368-4.092-.105-6.611-3.632-6.454-10.632zM308.278 53.212c6.66-4.116 34.047-4.415 40.033 0 3.128 2.306 2.694 6.21 0 9.952-2.694 3.741-35.259 32.745-41.006 33.523-7.183.973-17.061-9.279-18.034-20.204-.778-8.74 12.347-19.156 19.007-23.271zM258.966 110.077c-21.611-21.91-47.291-21.176-55.673-14.516-8.178 6.498-13.349 16.941-2.394 26.639 13.693 12.122 51.182 5.612 51.182 5.612s18.184 17.36 47.217 18.557c15.564.642 17.585-20.204 15.564-25.067-2.02-4.864-18.033-12.871-55.896-11.225z"/><path d="M76.009 213.641c10.102-3.891 46.618 1.497 58.291 3.891 20.129 19.655 61.27 60.686 64.801 67.57 4.415 8.605-2.02 107.079 0 117.705 2.021 10.626 60.088 60.835 63.53 62.556 3.442 1.721 5.537-12.421 6.51-17.135.973-4.714-32.925-35.469-27.462-41.306 5.462-5.836 58.366 52.904 62.556 58.441 4.191 5.538-.748 29.483 0 36.741.749 7.258 19.231 20.204 23.347 23.646 4.115 3.442 25.067-1.048 29.856 0 4.789 1.047 57.543 53.951 57.543 57.692 0 3.742-14.591 15.49-18.034 19.905-3.442 4.415-4.115 63.529 0 74.229 4.116 10.701 40.183 34.646 43.251 42.204 3.068 7.557 1.721 114.038 0 117.48-1.721 3.442-11.374 8.231-13.768 11.673-2.395 3.442-1.721 63.529 0 69.665 1.721 6.136 24.095 27.837 29.931 32.326 4.669 3.592 22.548 1.497 30.904 0-.124-2.07-.299-7.109 0-10.7.374-4.49-17.21-17.51-19.231-21.626-2.02-4.115-1.421-23.645 0-30.53 1.422-6.884 60.761-58.74 64.502-61.808 3.742-3.068-.972-21.999 0-28.21.973-6.211 30.605-33.598 37.115-36.367 6.51-2.768 10.626.674 21.326 0 10.701-.673 17.809-12.72 20.204-17.884 2.394-5.163-.299-51.107 0-56.944.299-5.837 13.095-11.374 15.789-15.115 2.693-3.742 1.047-41.605 0-47.441-1.048-5.837-53.577-51.856-60.087-54.251-6.511-2.394-52.53.374-56.645 0-4.116-.374-15.116-21.625-20.578-21.625h-55.298c-6.136 0-3.068 5.836-7.932 6.211-4.864.374-51.482-57.02-54.55-64.577-3.068-7.558-7.109-4.265-31.278-5.313-11.748-23.571 1.047-40.333 5.238-43.475 3.352-2.515 30.131-1.048 43.101 0 11.523 15.115 23.571 17.21 26.04 6.959 2.469-10.252-15.04-21.925-15.938-32.326-.898-10.401 17.285-22.449 21.026-25.891 3.742-3.442 3.218-11.523 3.218-21.625s37.115-22.149 36.591-38.013c-.524-15.863 12.945-27.387 15.789-30.305 2.843-2.919 25.067-1.422 31.727-2.245 6.66-.823 8.605-7.782 10.401-12.721 1.796-4.939.524-23.346 0-28.809-.524-5.462-29.707-31.952-35.468-35.169-5.762-3.218-40.333 0-44.673 0-4.34 0-10.626 12.122-14.367 18.482-3.741 6.361-.599 24.769 0 30.231.599 5.462-4.939 15.265-14.142 12.721-9.204-2.544-58.816-54.176-59.938-65.176-1.122-10.999 22.449-30.23 26.789-35.169 4.34-4.939.299-22.149 0-30.829-.3-8.68-21.027-20.428-22.748-19.007-1.721 1.422-2.844 21.401-9.803 26.041-6.959 4.639-74.604 1.571-82.386 0-7.782-1.572-10.102-17.884-17.135-24.095-7.034-6.211-59.863 0-67.645 0-7.782 0-13.17 17.884-23.272 19.455-10.102 1.572-23.346-19.455-30.38-24.917-7.034-5.463-76.175-1.572-90.916 5.462-14.742 7.034-4.64 54.4-7.034 61.434C22.282 202.791.582 207.43.582 217.532c0 10.102 22.598 32.625 38.91 33.373 16.313.749 26.415-33.373 36.517-37.264z"/></symbol><symbol id="black-star"><path d="M19.414 23.472L12 19.574l-7.414 3.898 1.416-8.255L0 9.37l8.29-1.204L12 .539l3.71 7.627L24 9.37l-6.002 5.847 1.416 8.255z"/></symbol><symbol id="check"><path d="M16 0H2a2 2 0 00-2 2v14a2 2 0 002 2h14a2 2 0 002-2V2a2 2 0 00-2-2zM7 14L2 9l1.41-1.41L7 11.17l7.59-7.59L16 5l-9 9z"/></symbol><symbol id="chevron-down"><path d="M.894 0L0 .91 5 6l5-5.09L9.106 0 5 4.18.894 0z"/></symbol><symbol id="cross"><path d="M7.875.512h-1.75v6.125H0v1.75h6.125v6.125h1.75V8.387H14v-1.75H7.875V.512z"/></symbol><symbol id="facebook"><path d="M14.281 30.78V20.744h5.071l.966-6.364H14.28c-.402-1.877-.87-5.826.483-6.61 1.352-.783 4.587-.816 6.036-.734v-5.63C17.741.835 11.093.426 8.968 3.364 6.843 6.302 6.634 11.932 6.795 14.38H1v6.364h5.795v15.422c.563.57 2.85 1.42 7.486.244v-2.853"/></symbol><symbol id="left-arrow-black"><path d="M.146 7.646l7.5-7.5a.5.5 0 11.708.708L1.707 7.5H23.5a.5.5 0 110 1H1.707l6.647 6.646a.5.5 0 11-.708.707l-7.5-7.5a.5.5 0 010-.707z"/></symbol><symbol id="linkedin"><path d="M1.012 31.816V11.109h6.565v20.707h-4.04"/><path d="M25.757 31.852h6.566c.168-3.703 0-11.11 0-13.13 0-2.083-.505-7.071-7.07-7.576-5.54-.426-7.072 3.03-7.072 3.03s-.505-1.515-.505-3.03h-5.555v20.706h6.06c0-4.04.304-12.525 1.516-14.14 1.515-2.02 4.302-1.88 5.555 0 1.01 1.515.505 9.595.505 10.605" stroke-linecap="round" stroke-linejoin="round"/><circle cx="4.04" cy="4.04" r="3.54"/></symbol><symbol id="minus"><path d="M8.656.625H.789v1.75h13.985V.625H8.656z"/></symbol><symbol id="no"><path d="M11.949 17.134l.188-.903H3.035a1.85 1.85 0 01-1.837-1.862v-2.613c0-.236.043-.455.126-.672l3.903-9.197h0l.003-.007A1.82 1.82 0 016.918.75h11.647c.485 0 .952.195 1.297.543.346.349.541.823.541 1.32v13.062c0 .515-.202.98-.546 1.327l-7.985 8.06-.836-.836-.001-.002a1.226 1.226 0 01-.352-.855c0-.1.01-.193.024-.27l1.242-5.965zm12.542-2.209V.75h3.677v14.175h-3.677z" stroke-width="1.5"/></symbol><symbol id="right-arrow-aqua"><path d="M24.517 7.646l-7.488-7.5a.498.498 0 10-.706.708L22.96 7.5H1.202a.5.5 0 000 1H22.96l-6.636 6.646a.5.5 0 00.706.707l7.488-7.5a.5.5 0 000-.707z"/></symbol><symbol id="right-arrow-black"><path d="M24.209 7.646l-7.5-7.5a.5.5 0 10-.707.708L22.648 7.5H.855a.5.5 0 100 1h21.793l-6.646 6.646a.5.5 0 10.707.707l7.5-7.5a.5.5 0 000-.707z"/></symbol><symbol id="right-arrow-blue"><path d="M23.854 7.646l-7.5-7.5a.5.5 0 10-.707.708L22.293 7.5H.5a.5.5 0 100 1h21.793l-6.646 6.646a.5.5 0 10.707.707l7.5-7.5a.5.5 0 000-.707z"/></symbol><symbol id="right-arrow-lightgreen"><path d="M23.854 7.627l-7.5-7.48a.5.5 0 00-.707 0 .498.498 0 000 .704l6.646 6.63H.5a.5.5 0 100 .998h21.793l-6.646 6.63a.498.498 0 00.353.851.5.5 0 00.354-.146l7.5-7.481a.498.498 0 000-.706z"/></symbol><symbol id="right-arrow-white"><path d="M24.209 7.646l-7.5-7.5a.5.5 0 10-.707.708L22.648 7.5H.855a.5.5 0 100 1h21.793l-6.646 6.646a.5.5 0 10.707.707l7.5-7.5a.5.5 0 000-.707z"/></symbol><symbol id="sprite-footer-links-768"><path opacity=".5" d="M3.5 0C1.57 0 0 1.682 0 3.75c0 2.767 3.23 6.055 3.367 6.193A.188.188 0 003.5 10a.188.188 0 00.133-.057C3.771 9.805 7 6.517 7 3.75 7 1.682 5.43 0 3.5 0zm0 5.833c-1.072 0-1.944-.934-1.944-2.083S2.428 1.667 3.5 1.667 5.444 2.6 5.444 3.75 4.572 5.833 3.5 5.833zM9.198 21.564a5.676 5.676 0 01-1.783-.284c-.28-.095-.623-.008-.793.167l-1.125.849c-1.303-.696-2.107-1.5-2.793-2.793l.824-1.096a.808.808 0 00.198-.819 5.687 5.687 0 01-.285-1.786A.803.803 0 002.64 15H.802a.803.803 0 00-.802.802C0 20.874 4.126 25 9.198 25c.442 0 .802-.36.802-.802v-1.832a.803.803 0 00-.802-.802zM5.001 30H5A5.004 5.004 0 000 35c0 1.094.352 2.108.952 2.93l-.623 1.858 1.922-.614C3.04 39.697 3.984 40 5 40A5.005 5.005 0 0010 35c0-2.757-2.242-5-4.999-5zm2.91 7.06c-.121.341-.6.624-.982.706-.26.056-.602.1-1.75-.376-1.47-.609-2.417-2.102-2.49-2.199-.07-.097-.594-.79-.594-1.508 0-.717.364-1.067.511-1.217.12-.123.32-.18.512-.18.061 0 .117.004.167.006.147.007.22.015.317.247.121.291.415 1.008.45 1.082.036.074.071.174.021.27-.047.1-.088.145-.162.23-.074.085-.143.15-.217.241-.068.08-.144.165-.059.312.085.144.379.623.811 1.008.558.497 1.01.655 1.173.723.12.05.264.038.352-.056.112-.12.25-.32.39-.517.1-.141.227-.159.36-.109.135.047.849.4.996.473.147.074.244.109.28.17.034.063.034.353-.086.695zM9.702 51.055c.724-3.25-2.124-6.203-5.469-5.636C2.418 44.292 0 45.565 0 47.725c0 .503.139.973.38 1.378-.673 3.258 2.199 6.169 5.54 5.563 2.363 1.25 4.973-1.242 3.782-3.61zm-3.179 1.96c-.877.361-2.321.364-3.195-.094-1.246-.664-1.467-2.16-.393-2.16.81 0 .554.945 1.372 1.33.375.173 1.183.191 1.652-.125.463-.31.42-.798.169-1.03-.668-.617-2.577-.372-3.45-1.45-.379-.468-.45-1.294.016-1.892.812-1.046 3.196-1.11 4.222-.32.946.733.69 1.705-.073 1.705-.919 0-.436-1.202-1.92-1.202-1.074 0-1.497.765-.74 1.137 1.026.51 3.642.34 3.642 2.332-.002.829-.51 1.447-1.302 1.77zM5 60c-2.761 0-5 2.072-5 4.63 0 1.456.727 2.756 1.863 3.604V70l1.703-.934c.454.125.935.193 1.434.193 2.761 0 5-2.072 5-4.629C10 62.073 7.761 60 5 60zm.497 6.234l-1.273-1.358-2.485 1.358 2.734-2.9 1.304 1.357 2.453-1.358-2.733 2.901z"/><path d="M18.5 0C16.57 0 15 1.682 15 3.75c0 2.767 3.23 6.055 3.367 6.193A.188.188 0 0018.5 10a.188.188 0 00.133-.057C18.771 9.805 22 6.517 22 3.75 22 1.682 20.43 0 18.5 0zm0 5.833c-1.072 0-1.945-.934-1.945-2.083s.873-2.083 1.945-2.083 1.945.934 1.945 2.083-.873 2.083-1.945 2.083zM24.198 21.564a5.677 5.677 0 01-1.784-.284c-.279-.095-.622-.008-.792.167l-1.125.849c-1.303-.696-2.107-1.5-2.793-2.793l.823-1.096a.808.808 0 00.2-.819 5.686 5.686 0 01-.286-1.786.803.803 0 00-.802-.802h-1.837a.803.803 0 00-.802.802C15 20.874 19.126 25 24.198 25c.442 0 .802-.36.802-.802v-1.832a.803.803 0 00-.802-.802zM20.001 30H20A5.004 5.004 0 0015 35c0 1.094.352 2.108.952 2.93l-.623 1.858 1.922-.614c.79.523 1.733.826 2.75.826A5.005 5.005 0 0025 35c0-2.757-2.242-5-4.999-5zm2.91 7.06c-.121.341-.6.624-.982.706-.26.056-.602.1-1.75-.376-1.47-.609-2.416-2.102-2.49-2.199-.07-.097-.594-.79-.594-1.508 0-.717.364-1.067.511-1.217.12-.123.32-.18.511-.18.062 0 .118.004.168.006.147.007.22.015.317.247.121.291.415 1.008.45 1.082.035.074.071.174.021.27-.047.1-.088.145-.162.23-.074.085-.144.15-.217.241-.068.08-.144.165-.059.312.085.144.379.623.811 1.008.558.497 1.01.655 1.173.723.12.05.264.038.352-.056.112-.12.25-.32.39-.517.1-.141.227-.159.36-.109.135.047.849.4.996.473.147.074.244.109.28.17.034.063.034.353-.086.695zM24.702 51.055c.724-3.25-2.124-6.203-5.469-5.636-1.815-1.127-4.233.146-4.233 2.306 0 .503.139.973.38 1.378-.673 3.258 2.199 6.169 5.54 5.563 2.363 1.25 4.973-1.242 3.782-3.61zm-3.179 1.96c-.877.361-2.321.364-3.195-.094-1.246-.664-1.467-2.16-.393-2.16.81 0 .554.945 1.372 1.33.375.173 1.183.191 1.652-.125.463-.31.42-.798.169-1.03-.668-.617-2.577-.372-3.45-1.45-.379-.468-.45-1.294.016-1.892.812-1.046 3.196-1.11 4.222-.32.946.733.69 1.705-.073 1.705-.919 0-.436-1.202-1.92-1.202-1.074 0-1.497.765-.74 1.137 1.026.51 3.642.34 3.642 2.332-.002.829-.51 1.447-1.302 1.77zM20 60c-2.761 0-5 2.072-5 4.63 0 1.456.727 2.756 1.863 3.604V70l1.703-.934c.454.125.935.193 1.434.193 2.761 0 5-2.072 5-4.629 0-2.557-2.239-4.63-5-4.63zm.497 6.234l-1.273-1.358-2.485 1.358 2.733-2.9 1.305 1.357 2.453-1.358-2.733 2.901z"/></symbol><symbol id="sprite-footer-links"><path opacity=".5" d="M6.375 0A6.382 6.382 0 000 6.375c0 4.703 5.882 10.293 6.132 10.529a.355.355 0 00.486 0c.25-.236 6.132-5.826 6.132-10.529A6.382 6.382 0 006.375 0zm0 9.917a3.546 3.546 0 01-3.542-3.542 3.546 3.546 0 013.542-3.542 3.546 3.546 0 013.542 3.542 3.546 3.546 0 01-3.542 3.542zM15.636 33.159a9.65 9.65 0 01-3.031-.483c-.475-.162-1.058-.014-1.348.284l-1.911 1.443c-2.217-1.184-3.583-2.549-4.75-4.749l1.4-1.861c.365-.364.495-.895.339-1.393a9.667 9.667 0 01-.485-3.036c0-.752-.612-1.364-1.364-1.364H1.364C.612 22 0 22.612 0 23.364 0 31.986 7.014 39 15.636 39c.752 0 1.364-.612 1.364-1.364v-3.113c0-.753-.612-1.364-1.364-1.364zM8.502 44h-.004C3.81 44 0 47.834 0 52.549c0 1.87.6 3.603 1.618 5.01l-1.06 3.177 3.268-1.05a8.392 8.392 0 004.676 1.412c4.687 0 8.498-3.835 8.498-8.549C17 47.835 13.189 44 8.502 44zm4.946 12.072c-.205.583-1.019 1.066-1.668 1.207-.444.095-1.024.17-2.977-.644-2.498-1.04-4.107-3.593-4.232-3.76-.12-.165-1.01-1.35-1.01-2.578 0-1.226.62-1.824.87-2.08.205-.21.544-.307.869-.307.105 0 .2.005.285.01.25.01.375.025.54.422.204.497.704 1.724.763 1.85.06.126.121.297.036.462-.08.171-.15.247-.275.392-.125.146-.244.257-.37.413-.114.136-.244.281-.1.532.145.246.644 1.066 1.38 1.724.948.85 1.718 1.12 1.993 1.236.205.086.45.065.6-.095.19-.206.424-.548.663-.885.17-.241.385-.271.61-.186.23.08 1.444.684 1.694.81.25.125.414.185.475.291.06.106.06.603-.146 1.186zM16.494 76.355c1.23-5.559-3.612-10.608-9.297-9.639C4.11 64.79 0 66.966 0 70.661c0 .859.236 1.663.645 2.356-1.142 5.571 3.739 10.548 9.42 9.513 4.015 2.136 8.453-2.124 6.43-6.175zm-5.405 3.352c-1.491.617-3.946.62-5.432-.161-2.117-1.136-2.494-3.694-.667-3.694 1.377 0 .941 1.615 2.332 2.274.638.296 2.01.327 2.808-.214.787-.53.715-1.364.287-1.763-1.134-1.053-4.38-.635-5.864-2.479-.645-.8-.766-2.21.026-3.234 1.381-1.788 5.435-1.897 7.178-.547 1.609 1.253 1.174 2.915-.124 2.915-1.562 0-.741-2.055-3.262-2.055-1.828 0-2.547 1.307-1.26 1.944 1.745.871 6.192.58 6.192 3.987-.004 1.418-.868 2.475-2.214 3.027zM8.5 88C3.806 88 0 91.544 0 95.915c0 2.491 1.236 4.713 3.167 6.164v3.019l2.895-1.598c.772.215 1.59.332 2.438.332 4.694 0 8.5-3.544 8.5-7.916C17 91.545 13.194 88 8.5 88zm.845 10.66L7.18 96.337 2.957 98.66l4.646-4.96 2.218 2.322 4.17-2.322-4.646 4.96z"/><path d="M28.375 0A6.382 6.382 0 0022 6.375c0 4.703 5.882 10.293 6.132 10.529a.355.355 0 00.486 0c.25-.236 6.132-5.826 6.132-10.529A6.382 6.382 0 0028.375 0zm0 9.917a3.546 3.546 0 01-3.542-3.542 3.546 3.546 0 013.542-3.542 3.546 3.546 0 013.542 3.542 3.546 3.546 0 01-3.542 3.542zM37.636 33.159a9.65 9.65 0 01-3.031-.483c-.475-.162-1.058-.014-1.348.284l-1.911 1.443c-2.217-1.184-3.582-2.549-4.75-4.749l1.4-1.861c.365-.364.495-.895.339-1.393a9.667 9.667 0 01-.485-3.036c0-.752-.612-1.364-1.364-1.364h-3.122c-.752 0-1.364.612-1.364 1.364C22 31.986 29.014 39 37.636 39c.752 0 1.364-.612 1.364-1.364v-3.113c0-.753-.612-1.364-1.364-1.364zM30.502 44h-.004C25.81 44 22 47.834 22 52.549c0 1.87.6 3.603 1.618 5.01l-1.06 3.177 3.268-1.05a8.392 8.392 0 004.676 1.412c4.687 0 8.498-3.835 8.498-8.549C39 47.835 35.189 44 30.502 44zm4.946 12.072c-.205.583-1.019 1.066-1.668 1.207-.444.095-1.024.17-2.977-.644-2.498-1.04-4.107-3.593-4.232-3.76-.12-.165-1.01-1.35-1.01-2.578 0-1.226.62-1.824.87-2.08.205-.21.544-.307.869-.307.105 0 .2.005.284.01.25.01.376.025.54.422.205.497.705 1.724.764 1.85.06.126.121.297.036.462-.08.171-.15.247-.275.392-.125.146-.244.257-.37.413-.114.136-.244.281-.1.532.145.246.644 1.066 1.38 1.724.948.85 1.718 1.12 1.993 1.236.205.086.45.065.6-.095.19-.206.424-.548.663-.885.17-.241.385-.271.61-.186.23.08 1.444.684 1.694.81.25.125.414.185.475.291.06.106.06.603-.146 1.186zM38.494 76.355c1.23-5.559-3.612-10.608-9.297-9.639C26.11 64.79 22 66.966 22 70.661c0 .859.236 1.663.645 2.356-1.142 5.571 3.739 10.548 9.42 9.513 4.015 2.136 8.453-2.124 6.43-6.175zm-5.405 3.352c-1.491.617-3.946.62-5.431-.161-2.118-1.136-2.495-3.694-.668-3.694 1.377 0 .941 1.615 2.332 2.274.638.296 2.01.327 2.808-.214.787-.53.715-1.364.287-1.763-1.134-1.053-4.38-.635-5.864-2.479-.645-.8-.767-2.21.026-3.234 1.381-1.788 5.435-1.897 7.178-.547 1.609 1.253 1.174 2.915-.124 2.915-1.562 0-.741-2.055-3.262-2.055-1.828 0-2.547 1.307-1.26 1.944 1.745.871 6.192.58 6.192 3.987-.004 1.418-.868 2.475-2.214 3.027zM30.5 88c-4.694 0-8.5 3.544-8.5 7.915 0 2.491 1.236 4.713 3.167 6.164v3.019l2.895-1.598c.772.215 1.59.332 2.438.332 4.694 0 8.5-3.544 8.5-7.916C39 91.545 35.194 88 30.5 88zm.845 10.66l-2.165-2.323-4.223 2.322 4.646-4.96 2.218 2.322 4.17-2.322-4.646 4.96z"/></symbol><symbol id="sprite-footer-social-768"><path d="M21.35 20.85c-1.815-.144-3.35-1.58-3.35-1.58s2.513 0 6.002-1.723c-2.68-.574-3.768-2.2-3.908-3.014.419.143 1.535.143 1.955-.144-3.127-.919-3.537-3.158-3.35-4.163 1.674.717 1.953.43 1.953.43s-3.07-2.153-1.256-5.742c4.048 4.594 7.398 4.45 8.655 4.45-.28-1.722.14-3.732 2.234-4.88 2.093-1.15 3.908 0 5.025.86.698 0 1.535-.143 2.652-.86-.14 1.148-1.303 1.722-1.954 2.296.893 0 2.047-.383 2.512-.574-.326.718-1.256 1.723-2.094 2.297.418 4.307-2.931 10.767-8.375 12.203 0 0-1.955.574-3.909.574" stroke-width=".6" stroke-linecap="round" stroke-linejoin="round"/><path d="M8.969 18.868v-6.022h3.042l.58-3.818H8.969c-.242-1.126-.522-3.496.29-3.966.81-.47 2.752-.49 3.621-.44V1.244C11.045.9 7.056.656 5.78 2.419c-1.274 1.762-1.4 5.14-1.303 6.609H1v3.818h3.477V22.1c.338.343 1.71.852 4.492.147v-1.712M44.607 21.09V8.666h3.94V21.09h-2.425" stroke-width=".6"/><path d="M59.454 21.111h3.94c.1-2.222 0-6.666 0-7.878 0-1.25-.303-4.242-4.243-4.546-3.323-.255-4.242 1.819-4.242 1.819s-.303-.91-.303-1.819h-3.333v12.424h3.636c0-2.424.182-7.515.909-8.484.91-1.212 2.582-1.128 3.333 0 .606.909.303 5.757.303 6.363" stroke-width=".6" stroke-linecap="round" stroke-linejoin="round"/><circle cx="46.424" cy="4.424" r="2.124" stroke-width=".6"/></symbol><symbol id="sprite-footer-social"><path d="M14.281 30.78V20.744h5.071l.966-6.364H14.28c-.402-1.877-.87-5.826.483-6.61 1.352-.783 4.587-.816 6.036-.734v-5.63C17.741.835 11.093.426 8.968 3.364 6.843 6.302 6.634 11.932 6.795 14.38H1v6.364h5.795v15.422c.563.57 2.85 1.42 7.486.244v-2.853"/><path d="M35.584 29.082C32.559 28.842 30 26.45 30 26.45s4.188 0 10.004-2.871c-4.467-.957-6.282-3.669-6.514-5.025.698.24 2.559.24 3.258-.239-5.211-1.531-5.894-5.264-5.584-6.939 2.792 1.196 3.257.718 3.257.718s-5.119-3.59-2.094-9.571c6.747 7.657 12.33 7.417 14.425 7.417-.466-2.87.232-6.22 3.722-8.135 3.49-1.914 6.514 0 8.376 1.436 1.163 0 2.558-.24 4.42-1.436-.233 1.914-2.171 2.872-3.257 3.829 1.49 0 3.412-.638 4.187-.958-.543 1.197-2.094 2.872-3.49 3.829.697 7.178-4.886 17.945-13.958 20.338 0 0-3.258.957-6.515.957" stroke-linecap="round" stroke-linejoin="round"/><path d="M74.013 32.818V12.11h6.565v20.707h-4.04"/><path d="M98.758 32.854h6.565c.169-3.703 0-11.11 0-13.13 0-2.083-.505-7.071-7.07-7.576-5.54-.427-7.07 3.03-7.07 3.03s-.506-1.515-.506-3.03h-5.555v20.706h6.06c0-4.04.303-12.525 1.515-14.141 1.516-2.02 4.303-1.88 5.556 0 1.01 1.515.505 9.596.505 10.606" stroke-linecap="round" stroke-linejoin="round"/><circle cx="77.04" cy="5.04" r="3.54"/></symbol><symbol id="twitter"><path d="M6.384 29.082C3.36 28.842.801 26.45.801 26.45s4.188 0 10.004-2.871c-4.467-.957-6.282-3.669-6.514-5.025.698.24 2.559.24 3.258-.239-5.212-1.531-5.894-5.264-5.584-6.939 2.792 1.196 3.256.718 3.256.718S.103 8.504 3.127 2.523C9.874 10.18 15.457 9.94 17.552 9.94c-.465-2.87.233-6.22 3.723-8.135 3.49-1.914 6.514 0 8.375 1.436 1.164 0 2.559-.24 4.42-1.436-.233 1.914-2.17 2.872-3.256 3.829 1.49 0 3.412-.638 4.187-.958-.543 1.197-2.094 2.872-3.49 3.829.697 7.178-4.886 17.945-13.959 20.338 0 0-3.257.957-6.514.957" stroke-linecap="round" stroke-linejoin="round"/></symbol><symbol id="two-lines"><path opacity=".2" d="M16.538.004L0 46.784h16.538L32.543.005H16.538zM49.538.004L33 46.784h16.538L65.543.005H49.538z"/></symbol><symbol id="two-stars-768"><path d="M11.325 13.378L7 11.104l-4.325 2.274.826-4.816L0 5.152l4.836-.703L7 0l2.164 4.449L14 5.15l-3.501 3.41.826 4.817z"/><path d="M11.325 32L7 29.62 2.675 32l.826-5.04L0 23.39l4.836-.734L7 18l2.164 4.656L14 23.39l-3.501 3.57.826 5.039z"/></symbol><symbol id="two-stars"><path d="M19.414 23.472L12 19.574l-7.414 3.898 1.416-8.255L0 9.37l8.29-1.204L12 .539l3.71 7.627L24 9.37l-6.002 5.847 1.416 8.255z"/><path d="M19.414 48.472L12 44.574l-7.414 3.898 1.416-8.255L0 34.37l8.29-1.204L12 25.539l3.71 7.627L24 34.37l-6.002 5.847 1.416 8.255z"/></symbol><symbol id="yes"><path d="M28.47 11.756a2.6 2.6 0 00-2.588-2.612h-8.179l1.243-5.97a2.18 2.18 0 00.038-.418c0-.535-.22-1.032-.569-1.384L17.043 0 8.528 8.595a2.62 2.62 0 00-.763 1.855v13.063c0 .692.272 1.357.758 1.847.485.49 1.143.765 1.83.765H22a2.57 2.57 0 002.38-1.594l3.91-9.209c.116-.3.18-.614.18-.953v-2.613zM0 26.125h5.176V10.45H0v15.675z"/></symbol><symbol id="fintech"><rect x="87.488" y=".004" width="12.741" height="50.961" rx="6.359"/><rect x="125.703" width="12.741" height="50.961" rx="6.359"/><rect x="163.93" width="12.741" height="50.961" rx="6.359"/><rect x="265.012" y="89.293" width="12.74" height="50.962" rx="6.359" transform="rotate(90 265.012 89.293)"/><rect x="265.012" y="127.512" width="12.74" height="50.962" rx="6.359" transform="rotate(90 265.012 127.512)"/><rect x="265.012" y="165.73" width="12.74" height="50.962" rx="6.359" transform="rotate(90 265.012 165.73)"/><rect x="50.965" y="89.293" width="12.74" height="50.962" rx="6.359" transform="rotate(90 50.965 89.293)"/><rect x="50.965" y="127.512" width="12.74" height="50.962" rx="6.359" transform="rotate(90 50.965 127.512)"/><rect x="50.965" y="165.73" width="12.74" height="50.962" rx="6.359" transform="rotate(90 50.965 165.73)"/><rect x="87.488" y="214.039" width="12.741" height="50.961" rx="6.359"/><rect x="125.711" y="214.039" width="12.741" height="50.961" rx="6.359"/><rect x="163.93" y="214.039" width="12.741" height="50.961" rx="6.359"/><path d="M33.984 33.977h197.058V231.03H33.984z"/><path d="M120.401 100.818h24.196c6.672 0 12.099 5.33 12.099 11.882h16.13c0-15.29-12.661-27.725-28.229-27.725h-4.032V69.133h-16.131v15.842h-4.033c-15.568 0-28.23 12.435-28.23 27.725 0 15.289 12.662 27.724 28.23 27.724h24.196c6.672 0 12.099 5.33 12.099 11.882s-5.427 11.882-12.099 11.882h-24.196c-6.671 0-12.098-5.33-12.098-11.882H92.172c0 15.29 12.661 27.725 28.229 27.725h4.033v15.842h16.131v-15.842h4.032c15.568 0 28.229-12.435 28.229-27.725 0-15.289-12.661-27.724-28.229-27.724h-24.196c-6.671 0-12.098-5.33-12.098-11.882s5.427-11.882 12.098-11.882z"/></symbol><symbol id="healthtech"><path d="M194.609 17.078c-31.395 0-51.548 21.745-62.109 41.328-10.561-19.584-30.714-41.328-62.11-41.328C30.557 17.078 0 49.398 0 92.266c0 11.185 2.24 21.511 6.363 31.433h59.229l13.381-26.763c2.639-5.262 11.251-5.262 13.89 0l24.11 48.22 8.582-17.165c2.639-5.262 11.251-5.262 13.89 0l8.582 17.165 24.11-48.22c2.639-5.261 11.251-5.261 13.89 0l13.381 26.763h59.229c4.123-9.922 6.363-20.248 6.363-31.433 0-42.867-30.556-75.188-70.391-75.188z"/><path d="M194.61 139.23a7.767 7.767 0 01-6.945-4.292l-8.583-17.165-24.109 48.22a7.767 7.767 0 01-13.89 0l-8.583-17.165-8.582 17.165c-2.639 5.262-11.251 5.262-13.89 0l-24.11-48.22-8.582 17.165a7.767 7.767 0 01-6.945 4.292h-55.88c15.98 25.14 44.758 49.021 80.755 79.403 10.107 8.529 20.858 17.605 32.147 27.393a7.752 7.752 0 005.087 1.895 7.752 7.752 0 005.087-1.895c11.29-9.788 22.04-18.863 32.146-27.393 35.998-30.382 64.776-54.263 80.755-79.403H194.61z"/></symbol><symbol id="insurtech"><path d="M122.313 99.459v114.674c0 5.311-2.07 10.033-6.21 14.175-4.14 4.14-8.867 6.211-14.173 6.211-5.307 0-10.03-2.071-14.173-6.211-4.14-4.142-6.21-8.865-6.21-14.175 0-2.76-1.008-5.148-3.026-7.166-2.019-2.016-4.405-3.025-7.167-3.025-2.761 0-5.15 1.009-7.168 3.025-2.017 2.018-3.026 4.405-3.026 7.166 0 11.041 4.034 20.594 12.103 28.665 8.068 8.073 17.625 12.1 28.666 12.1 11.04 0 20.596-4.028 28.665-12.1 8.067-8.071 12.102-17.624 12.102-28.665V99.458c-3.504-1.167-6.902-1.751-10.192-1.751s-6.689.584-10.191 1.752zM142.693 42.635v-32.34c0-2.76-1.011-5.15-3.027-7.167C137.65 1.111 135.261.102 132.5.102c-2.76 0-5.148 1.009-7.166 3.026-2.018 2.019-3.025 4.408-3.025 7.168v32.338c4.457-.21 7.855-.318 10.191-.318 2.336 0 5.734.108 10.193.319z"/><path d="M264.834 124.956c-3.505-14.65-9.638-28-18.394-40.051-8.763-12.05-19.086-21.978-30.978-29.78-11.887-7.804-24.972-13.828-39.252-18.075a152.499 152.499 0 00-43.714-6.37c-20.173 0-39.307 3.61-57.41 10.828-18.102 7.22-33.92 18.075-47.455 32.566C14.094 88.566 4.936 105.528.16 124.956c-.109.21-.161.584-.161 1.113 0 1.38.504 2.577 1.513 3.583 1.009 1.009 2.202 1.512 3.582 1.512 1.17 0 2.39-.529 3.663-1.592 5.202-4.882 10.139-8.545 14.81-10.987 4.673-2.441 10.087-3.663 16.244-3.663 7.22 0 14.014 1.966 20.384 5.893 6.37 3.927 11.84 9.078 16.403 15.444.744 1.065 1.674 2.552 2.788 4.457 1.116 1.916 1.886 3.19 2.31 3.825 1.167 1.803 2.655 2.708 4.459 2.708 1.911 0 3.45-.905 4.618-2.708.425-.636 1.195-1.909 2.309-3.825 1.115-1.905 2.045-3.392 2.787-4.457 4.564-6.364 10.006-11.517 16.323-15.444 6.317-3.927 13.085-5.893 20.305-5.893 7.219 0 13.988 1.964 20.306 5.893 6.316 3.927 11.758 9.078 16.32 15.444.748 1.065 1.674 2.552 2.791 4.457 1.115 1.916 1.886 3.19 2.313 3.825 1.165 1.803 2.703 2.708 4.616 2.708 1.805 0 3.29-.905 4.455-2.708.427-.636 1.198-1.909 2.313-3.825 1.116-1.905 2.042-3.392 2.79-4.457 4.566-6.364 10.033-11.517 16.401-15.444 6.372-3.929 13.168-5.893 20.387-5.893 6.158 0 11.571 1.221 16.244 3.663 4.671 2.441 9.605 6.104 14.809 10.987 1.274 1.065 2.496 1.592 3.664 1.592 1.379 0 2.575-.504 3.581-1.512 1.008-1.009 1.512-2.201 1.512-3.583-.004-.531-.054-.903-.166-1.113z"/></symbol><symbol id="sass"><path d="M223.925 94.2C233.2 45.175 196.1.125 145.75.125c-39.75 0-72.875 29.15-78.175 66.25-39.75 0-67.575 31.8-67.575 66.25 0 37.1 29.15 66.25 66.25 66.25H212c29.15 0 53-23.85 53-53C265 120.7 247.775 99.5 223.925 94.2z"/></symbol><symbol id="startups"><path d="M32.636 184.071a5.53 5.53 0 00-4.328-4.206c-2.13-.442-4.328.463-5.587 2.252L1.7 212.148a5.434 5.434 0 00-1.005 3.169v44.163a5.52 5.52 0 003.412 5.101c.685.288 1.402.42 2.109.42a5.562 5.562 0 003.908-1.612l32.262-32.251a5.513 5.513 0 001.358-5.575c-2.32-7.243-6.813-22.225-11.108-41.492zM165.301 212.148l-21.022-30.031a5.495 5.495 0 00-5.587-2.252 5.545 5.545 0 00-4.328 4.206c-4.306 19.255-8.8 34.249-11.107 41.47a5.514 5.514 0 001.358 5.575l32.262 32.251a5.516 5.516 0 003.909 1.612 5.41 5.41 0 002.109-.42 5.52 5.52 0 003.411-5.101v-44.163a5.413 5.413 0 00-1.005-3.147z"/><path d="M111.412 226.357c3.566-10.676 21.772-67.813 21.772-121.46 0-59.632-44.03-101.631-45.908-103.398-2.109-1.999-5.432-1.999-7.552 0-1.877 1.766-45.908 43.766-45.908 103.398 0 53.647 18.218 110.772 21.773 121.46l-10.456 31.367A5.533 5.533 0 0050.366 265h66.246c1.777 0 3.444-.85 4.471-2.296a5.49 5.49 0 00.762-4.98l-10.433-31.367zM83.501 110.428c-9.131 0-16.562-7.43-16.562-16.561s7.43-16.562 16.562-16.562c9.13 0 16.561 7.43 16.561 16.562 0 9.131-7.43 16.561-16.561 16.561z"/></symbol><symbol id="tech-1"><path d="M34.082 37.758l23.813-23.813m0 0V27.21m0-13.265H44.95M34.242 37.758H1V71h33.242V37.758z" stroke-width="2"/><path d="M41.275 56.137h29.247V1H16.184v36.438" stroke-width="2"/></symbol><symbol id="tech-2"><path d="M66 74H8.057A7.057 7.057 0 011 66.943v0a7.057 7.057 0 017.057-7.057h52.746A5.197 5.197 0 0066 54.689v0a5.197 5.197 0 00-5.197-5.197H44.948V36.34H66L32.795 1 1 36.34h21.052v13.152" stroke-width="2" stroke-linecap="round" stroke-linejoin="round"/></symbol><symbol id="tech-3"><path d="M43.424 48.563l5.377 7.755-14.34 16.133-13.444-16.133L29.084 42.6c-4.482-3.884-13.444-9.859-13.444-21.51 0-9.86 7.508-19.844 18.821-19.844 11.314 0 19.718 6.4 19.718 19.844s-9.56 18.224-14.34 21.51c0 0 14.725-.853 22.599 3.585C70.312 50.623 68.512 82 68.512 82H1.292c-.897-11.95.337-25.955 2.826-31.332 2.079-4.493 8.266-6.274 11.851-6.274" stroke-width="2" stroke-linecap="round" stroke-linejoin="round"/></symbol><symbol id="tech-4"><path d="M20.117 31.441L33.871 44.89l29.284-34.136C54.922 9.62 38 5.5 33.87 1 29.5 5.5 11.095 9.226 1.186 10.753-.095 22.92 4.647 52.603 33.871 74 57.298 56.74 65.718 31.737 67 21.393" stroke-width="2" stroke-linecap="round" stroke-linejoin="round"/></symbol><symbol id="app"><path d="M91.729 179.457c48.451 0 87.728-39.277 87.728-87.728C179.457 43.277 140.18 4 91.729 4 43.277 4 4 43.277 4 91.729c0 28.261 13.364 53.401 34.117 69.446" stroke-width="6.7" stroke-linecap="round" stroke-linejoin="round"/><path d="M175.642 95.543c-46.344 0-87.728 39.277-87.728 87.728 0 48.452 37.569 87.729 83.914 87.729 46.344 0 83.914-39.277 83.914-87.729 0-28.261-12.782-53.401-32.633-69.446" stroke-width="6.7" stroke-linecap="round" stroke-linejoin="round"/></symbol><symbol id="custom"><path d="M236.874 175.813l9.149-21.477h25.782v-47.909h-25.782l-31.605-48.736 13.307-23.128L185.309 4l-21.624 27.346h-48.238L87.852 4l-43.93 30.563L57.227 57.69l-27.446 48.736H4v47.909h25.782l14.14 21.477 19.96 28.911-19.96 24.78 41.858 32.259 23.013-23.999h54.892l25.87 20.651 38.17-28.911-61.545-81.776c9.981-17.347-11.644-55.977-45.743-41.301-34.1 14.675-14.97 69.386 16.634 57.821" stroke-width="6.695" stroke-linecap="round" stroke-linejoin="round"/></symbol><symbol id="mvp"><path d="M145.429 240v-90.965C100.539 160.588 9.406 156.641 4 48.427 20.412 59.98 30.59 60.39 48.408 64.3c18.654 4.093 34.467-1.47 52.131 5.792 28.79 11.836 45.313 35.619 44.89 61.132 0-40.917-11.93-100.182 59.112-122.198 50.347-15.602 102.331 8.665 132.74 24.55-17.859 0-44.927 12.113-55.547 22.703C264.996 72.972 265.27 88.47 248.5 101.5c-19.796 15.382-36.385 16.861-48.452 16.861-16.337 0-32.675 8.639-32.675 30.674" stroke-width="6.7" stroke-linecap="round" stroke-linejoin="round"/></symbol><symbol id="product"><path d="M232.006 216.806c-19.608-16.855-33.301 4.351-47.234 15.752L92.01 146.259C32.779 167.956-12.834 103.354 9.994 57.753c18.974 15.2 34.174 34.202 34.174 34.202l47.842 1.103 5.36-46.704-38.001-34.2C98.94-19.352 165.772 47.456 145.2 93.057c48.641 48.641 96.269 91.202 114.003 106.403 35.307 30.263-11.997 85.747-49.401 68.402" stroke-width="6.7" stroke-linecap="round" stroke-linejoin="round"/></symbol><symbol id="project"><path d="M3.563 192l36.697-37.408 80.367-79.165 32.838 33.058 48.393-46.977L164.7 24.97 297.146 4l-20.97 133.193-38.887-38.277-83.824 81.775-32.838-31.318L78.284 192" stroke-width="6.7" stroke-linecap="round" stroke-linejoin="round"/></symbol><symbol id="buisinnes-image-1"><path d="M34.333 1l-10 20.106L1 25.128l16.667 16.085-4 22.787 20.666-10.723L55 64l-3.333-22.787L69 25.128l-22-4.022-6-10.053" stroke-width="2" stroke-linecap="round" stroke-linejoin="round"/></symbol><symbol id="buisinnes-image-11"><path d="M40.333 9l-10 20.106L7 33.128l16.667 16.085-4 22.787 20.666-10.723L61 72l-3.333-22.787L75 33.128l-22-4.022-6-10.053" stroke-width="2" stroke-linecap="round" stroke-linejoin="round"/></symbol><symbol id="buisinnes-image-2"><g filter="url(#filter0_d)"><path d="M7.39 68l13.143-29.91H5L20.533 1H46.82L31.287 23.732h22.702L31.287 50.054" stroke-width="2" stroke-linecap="round" stroke-linejoin="round"/></g></symbol><symbol id="buisinnes-image-22"><path d="M19.39 74l13.143-29.91H17L32.533 7H58.82L43.287 29.732h22.702L43.287 56.054" stroke-width="2" stroke-linecap="round" stroke-linejoin="round"/></symbol><symbol id="buisinnes-image-3"><path d="M63.747 33c15.097 0 17.532-32 0-32C46.216 1 30.2 33 13.48 33s-16.557-32 0-32c8.66 0 21.035 12.41 32.25 21.774 1.842 1.539 3.653 2.994 5.411 4.3" stroke-width="2" stroke-linecap="round" stroke-linejoin="round"/></symbol><symbol id="buisinnes-image-33"><path d="M65.747 57c15.097 0 17.532-32 0-32C48.216 25 32.2 57 15.48 57s-16.557-32 0-32c8.66 0 21.035 12.41 32.25 21.775 1.842 1.538 3.653 2.994 5.411 4.299" stroke-width="2" stroke-linecap="round" stroke-linejoin="round"/></symbol></svg>