<svg width="266" height="265" viewBox="0 0 266 265" fill="none" xmlns="http://www.w3.org/2000/svg">
<rect x="87.4883" y="0.00390625" width="12.7406" height="50.9614" rx="6.35897" fill="#EFEFEF"/>
<rect x="125.703" width="12.7406" height="50.9614" rx="6.35897" fill="#EFEFEF"/>
<rect x="163.93" width="12.7406" height="50.9614" rx="6.35897" fill="#EFEFEF"/>
<rect x="265.012" y="89.293" width="12.7403" height="50.9625" rx="6.35897" transform="rotate(90 265.012 89.293)" fill="#EFEFEF"/>
<rect x="265.012" y="127.512" width="12.7403" height="50.9625" rx="6.35897" transform="rotate(90 265.012 127.512)" fill="#EFEFEF"/>
<rect x="265.012" y="165.73" width="12.7403" height="50.9625" rx="6.35897" transform="rotate(90 265.012 165.73)" fill="#EFEFEF"/>
<rect x="50.9648" y="89.293" width="12.7403" height="50.9625" rx="6.35897" transform="rotate(90 50.9648 89.293)" fill="#EFEFEF"/>
<rect x="50.9648" y="127.512" width="12.7403" height="50.9625" rx="6.35897" transform="rotate(90 50.9648 127.512)" fill="#EFEFEF"/>
<rect x="50.9648" y="165.73" width="12.7403" height="50.9625" rx="6.35897" transform="rotate(90 50.9648 165.73)" fill="#EFEFEF"/>
<rect x="87.4883" y="214.039" width="12.7406" height="50.9614" rx="6.35897" fill="#EFEFEF"/>
<rect x="125.711" y="214.039" width="12.7406" height="50.9614" rx="6.35897" fill="#EFEFEF"/>
<rect x="163.93" y="214.039" width="12.7406" height="50.9614" rx="6.35897" fill="#EFEFEF"/>
<rect x="33.9844" y="33.9766" width="197.058" height="197.053" fill="#EFEFEF"/>
<path d="M120.401 100.818H144.597C151.269 100.818 156.696 106.148 156.696 112.7H172.826C172.826 97.4103 160.165 84.9753 144.597 84.9753H140.565V69.1328H124.434V84.9753H120.401C104.833 84.9753 92.1719 97.4103 92.1719 112.7C92.1719 127.989 104.833 140.424 120.401 140.424H144.597C151.269 140.424 156.696 145.754 156.696 152.306C156.696 158.858 151.269 164.188 144.597 164.188H120.401C113.73 164.188 108.303 158.858 108.303 152.306H92.1719C92.1719 167.596 104.833 180.031 120.401 180.031H124.434V195.873H140.565V180.031H144.597C160.165 180.031 172.826 167.596 172.826 152.306C172.826 137.017 160.165 124.582 144.597 124.582H120.401C113.73 124.582 108.303 119.252 108.303 112.7C108.303 106.148 113.73 100.818 120.401 100.818Z" fill="white"/>
</svg>
