<svg width="265" height="265" viewBox="0 0 265 265" fill="none" xmlns="http://www.w3.org/2000/svg">
<path d="M194.609 17.0781C163.214 17.0781 143.061 38.8226 132.5 58.4062C121.939 38.8221 101.786 17.0781 70.3906 17.0781C30.5563 17.0781 0 49.3988 0 92.2657C0 103.451 2.23956 113.777 6.36311 123.699H65.5916L78.9731 96.9358C81.6117 91.6741 90.2242 91.6741 92.8628 96.9358L116.973 145.156L125.555 127.991C128.194 122.729 136.806 122.729 139.445 127.991L148.027 145.156L172.137 96.9363C174.776 91.6746 183.388 91.6746 186.027 96.9363L199.408 123.699H258.637C262.76 113.777 265 103.451 265 92.2657C265 49.3988 234.444 17.0781 194.609 17.0781Z" fill="#EFEFEF"/>
<path d="M194.61 139.23C191.668 139.23 188.984 137.569 187.665 134.938L179.082 117.773L154.973 165.993C153.653 168.624 150.97 170.284 148.028 170.284C145.086 170.284 142.402 168.624 141.083 165.993L132.5 148.828L123.918 165.993C121.279 171.255 112.667 171.255 110.028 165.993L85.9184 117.773L77.3359 134.938C76.0166 137.569 73.3329 139.23 70.391 139.23H14.5117C30.4909 164.37 59.2688 188.251 95.2663 218.633C105.373 227.162 116.124 236.238 127.413 246.026C128.876 247.292 130.688 247.921 132.5 247.921C134.312 247.921 136.124 247.292 137.587 246.026C148.877 236.238 159.627 227.163 169.733 218.633C205.731 188.251 234.509 164.37 250.488 139.23H194.61Z" fill="#EFEFEF"/>
</svg>
