<svg width="265" height="255" viewBox="0 0 265 255" fill="none" xmlns="http://www.w3.org/2000/svg">
<path d="M122.313 99.4585V214.133C122.313 219.444 120.243 224.166 116.103 228.308C111.963 232.448 107.236 234.519 101.93 234.519C96.6232 234.519 91.8994 232.448 87.7568 228.308C83.6164 224.166 81.5476 219.443 81.5476 214.133C81.5476 211.373 80.5385 208.985 78.521 206.967C76.5024 204.951 74.1157 203.942 71.3536 203.942C68.5926 203.942 66.2036 204.951 64.1856 206.967C62.1692 208.985 61.1602 211.372 61.1602 214.133C61.1602 225.174 65.194 234.727 73.2629 242.798C81.3311 250.871 90.8881 254.898 101.929 254.898C112.969 254.898 122.525 250.87 130.594 242.798C138.661 234.727 142.696 225.174 142.696 214.133V99.4585C139.192 98.291 135.794 97.707 132.504 97.707C129.214 97.707 125.815 98.291 122.313 99.4585Z" fill="#EFEFEF"/>
<path d="M142.693 42.6345V10.2955C142.693 7.53565 141.682 5.14445 139.666 3.12807C137.65 1.11059 135.261 0.101562 132.5 0.101562C129.74 0.101562 127.352 1.11059 125.334 3.12807C123.316 5.14668 122.309 7.53565 122.309 10.2955V42.6345C126.766 42.4236 130.164 42.316 132.5 42.316C134.836 42.316 138.234 42.4236 142.693 42.6345Z" fill="#EFEFEF"/>
<path d="M264.834 124.956C261.329 110.306 255.196 96.9551 246.44 84.9048C237.677 72.8545 227.354 62.9266 215.462 55.1244C203.575 47.321 190.49 41.297 176.21 37.0501C161.932 32.802 147.36 30.6797 132.496 30.6797C112.323 30.6797 93.1888 34.2902 75.0866 41.5084C56.9844 48.7272 41.1658 59.5827 27.6307 74.0744C14.094 88.5661 4.93635 105.528 0.160083 124.956C0.0524313 125.166 0 125.54 0 126.069C0 127.449 0.503675 128.646 1.5127 129.652C2.52172 130.661 3.71537 131.164 5.09532 131.164C6.26442 131.164 7.48429 130.635 8.75826 129.572C13.9596 124.69 18.897 121.027 23.5684 118.585C28.2409 116.144 33.6553 114.922 39.8121 114.922C47.032 114.922 53.8263 116.888 60.1961 120.815C66.5665 124.742 72.0356 129.893 76.5993 136.259C77.3434 137.324 78.2727 138.811 79.3871 140.716C80.5027 142.632 81.273 143.906 81.6969 144.541C82.8643 146.344 84.3519 147.249 86.1558 147.249C88.0673 147.249 89.6062 146.344 90.7742 144.541C91.1987 143.905 91.9689 142.632 93.0828 140.716C94.1984 138.811 95.1277 137.324 95.8701 136.259C100.434 129.895 105.876 124.742 112.193 120.815C118.51 116.888 125.278 114.922 132.498 114.922C139.717 114.922 146.486 116.886 152.804 120.815C159.12 124.742 164.562 129.893 169.124 136.259C169.872 137.324 170.798 138.811 171.915 140.716C173.03 142.632 173.801 143.906 174.228 144.541C175.393 146.344 176.931 147.249 178.844 147.249C180.649 147.249 182.134 146.344 183.299 144.541C183.726 143.905 184.497 142.632 185.612 140.716C186.728 138.811 187.654 137.324 188.402 136.259C192.968 129.895 198.435 124.742 204.803 120.815C211.175 116.886 217.971 114.922 225.19 114.922C231.348 114.922 236.761 116.143 241.434 118.585C246.105 121.026 251.039 124.689 256.243 129.572C257.517 130.637 258.739 131.164 259.907 131.164C261.286 131.164 262.482 130.66 263.488 129.652C264.496 128.643 265 127.451 265 126.069C264.996 125.538 264.946 125.166 264.834 124.956Z" fill="#EFEFEF"/>
</svg>
