<svg width="167" height="265" viewBox="0 0 167 265" fill="none" xmlns="http://www.w3.org/2000/svg">
<path d="M32.6364 184.071C32.1504 181.94 30.4611 180.284 28.3082 179.865C26.1775 179.423 23.98 180.328 22.7213 182.117L1.69986 212.148C1.03741 213.076 0.695312 214.18 0.695312 215.317V259.48C0.695312 261.711 2.04247 263.731 4.10694 264.581C4.79165 264.869 5.50896 265.001 6.21592 265.001C7.65106 265.001 9.06446 264.438 10.1244 263.389L42.3858 231.138C43.8432 229.681 44.3732 227.528 43.7438 225.563C41.4247 218.32 36.9314 203.338 32.6364 184.071Z" fill="#EFEFEF"/>
<path d="M165.301 212.148L144.279 182.117C143.031 180.328 140.845 179.434 138.692 179.865C136.55 180.284 134.85 181.941 134.364 184.071C130.058 203.326 125.564 218.32 123.257 225.541C122.628 227.506 123.158 229.659 124.615 231.116L156.877 263.367C157.937 264.427 159.35 264.979 160.786 264.979C161.492 264.979 162.221 264.846 162.895 264.559C164.959 263.709 166.306 261.688 166.306 259.458V215.295C166.306 214.18 165.964 213.076 165.301 212.148Z" fill="#EFEFEF"/>
<path d="M111.412 226.357C114.978 215.681 133.184 158.544 133.184 104.897C133.184 45.265 89.1534 3.26555 87.2763 1.49867C85.1673 -0.499556 81.8442 -0.499556 79.7243 1.49867C77.8472 3.26504 33.8164 45.2645 33.8164 104.897C33.8164 158.544 52.0338 215.669 55.5888 226.357L45.133 257.724C44.5699 259.403 44.8571 261.258 45.8948 262.704C46.9324 264.139 48.5886 265 50.3663 265H116.612C118.389 265 120.056 264.15 121.083 262.704C122.132 261.268 122.408 259.414 121.845 257.724L111.412 226.357ZM83.5008 110.428C74.3699 110.428 66.9395 102.998 66.9395 93.8668C66.9395 84.7358 74.3699 77.3055 83.5008 77.3055C92.6318 77.3055 100.062 84.7358 100.062 93.8668C100.062 102.998 92.6313 110.428 83.5008 110.428Z" fill="#EFEFEF"/>
</svg>
