<svg width="341" height="244" viewBox="0 0 341 244" fill="none" xmlns="http://www.w3.org/2000/svg">
<path d="M145.429 240V149.035C100.539 160.588 9.40617 156.641 4 48.4268C20.4116 59.9799 30.5905 60.3901 48.4078 64.2996C67.0621 68.3927 82.875 62.8303 100.539 70.0919C129.329 81.9279 145.852 105.711 145.429 131.224C145.429 90.3068 133.499 31.0419 204.541 9.02639C254.888 -6.57621 306.872 17.6912 337.281 33.5767C319.422 33.5767 292.354 45.6891 281.734 56.2794C264.996 72.9722 265.27 88.4693 248.5 101.5C228.704 116.882 212.115 118.361 200.048 118.361C183.711 118.361 167.373 127 167.373 149.035" stroke="white" stroke-width="6.7" stroke-linecap="round" stroke-linejoin="round"/>
</svg>
