<svg width="156" height="39" viewBox="0 0 156 39" fill="none" xmlns="http://www.w3.org/2000/svg">
<path fill-rule="evenodd" clip-rule="evenodd" d="M0.152344 25.6612C0.34516 27.1479 0.483064 27.8915 0.75856 28.6672C1.33701 30.5097 2.35662 31.8999 3.73442 32.8047C5.22234 33.8068 7.53707 34.3887 9.87926 34.3887C13.1032 34.3887 15.528 33.4513 17.1261 31.6413C18.3937 30.1864 19.0552 28.1178 19.0552 25.6934C19.0552 22.7197 18.063 20.5542 16.0793 19.0997C15.0319 18.3236 13.7094 17.7743 11.6152 17.2568C8.36356 16.481 8.36356 16.481 7.81257 16.1903C6.93086 15.7053 6.51746 15.0265 6.51746 14.1213C6.51746 12.6347 7.75766 11.5678 9.4384 11.5678C11.5325 11.5678 12.5244 12.4408 12.8551 14.5419L18.697 13.7984C18.3388 11.9559 18.0081 10.9859 17.3192 9.91947C15.8313 7.49505 13.1584 6.23438 9.65867 6.23438C4.2305 6.23438 0.813472 9.36978 0.813472 14.3477C0.813472 16.966 1.75041 19.1319 3.48638 20.5542C4.50599 21.3946 5.3877 21.7823 7.9227 22.4289C10.7884 23.2046 11.4773 23.4306 12.0561 23.754C12.7724 24.142 13.2133 25.0146 13.2133 26.0167C13.2133 27.8271 11.9459 28.9257 9.82403 28.9257C8.41879 28.9257 7.26158 28.3764 6.60014 27.4065C6.18674 26.7603 5.99392 26.1784 5.88378 25.0146L0.152344 25.6612ZM33.4078 33.7742L38.509 16.8866V33.7746H43.4966V6.88099H36.8295L31.2899 24.8208L25.7747 6.88099H19.0552V33.7746H24.0428V16.8113L29.1437 33.7742H33.4078ZM86.8812 33.7746L83.5194 24.7239C82.6377 22.4289 82.0037 21.6854 80.5984 21.1682C81.9488 20.6511 82.5272 20.2952 83.2161 19.5521C84.2909 18.3561 84.8419 16.5458 84.8419 14.2508C84.8419 9.59617 82.2517 6.88099 77.7879 6.88099H66.7381V33.7746H72.2219V23.5923H75.0323C75.9141 23.5923 76.603 23.8512 77.1817 24.4653C77.8706 25.1763 78.2013 25.9198 79.083 28.7319L80.4331 33.7746H86.8812ZM72.2219 18.065V12.3113H76.548C78.2562 12.3113 79.138 13.2487 79.138 15.0591C79.1383 16.9013 78.1461 18.065 76.5203 18.065H72.2219ZM52.2404 23.1121H57.9581L57.6864 22.1056L55.0687 12.4083L52.5059 22.1056L52.2404 23.1121ZM59.4813 28.7546H50.7513C49.9435 31.8132 50.7513 28.7546 49.4256 33.7746H43.4966C45.4716 27.2474 43.4966 33.7746 51.6205 6.88099H58.6508L66.7381 33.7746L60.8367 33.7742L59.4813 28.7546ZM97.9032 12.6021H105.316V6.88099H84.8419L84.8423 12.6021H92.2544V33.7746H97.9032V12.6021Z" fill="black"/>
<path fill-rule="evenodd" clip-rule="evenodd" d="M113.411 38.559L125.391 0H113.411L101.766 38.559H113.411Z" fill="#FC6175"/>
<path fill-rule="evenodd" clip-rule="evenodd" d="M127.512 6.88086V33.7745H133.133V6.88123L127.512 6.88086ZM148.536 12.6023H155.949V6.88086H135.475V12.6023H142.888V33.7745H148.536V12.6023Z" fill="black"/>
</svg>
