<svg width="1657" height="953" viewBox="0 0 1657 953" fill="none" xmlns="http://www.w3.org/2000/svg">
<path d="M1645.76 826.709C1636.25 826.335 1635.96 836.362 1636.25 840.478C1636.25 848.26 1640.52 852.151 1647.18 852.675C1653.84 853.199 1657.28 842.648 1656.98 837.784C1656.68 832.92 1655.26 827.084 1645.76 826.709Z" fill="#E7E7E7"/>
<path d="M1623.16 850.582C1617.32 850.731 1594.72 878.717 1594.72 883.431C1594.72 889.118 1600.26 893.084 1606.77 893.758C1613.28 894.431 1634.68 865.622 1636.25 860.235C1637.82 854.847 1628.99 850.432 1623.16 850.582Z" fill="#E7E7E7"/>
<path d="M1376.22 810.472C1379.66 808.377 1386.62 813.465 1390.81 812.567C1395.45 807.03 1398.67 797.976 1413.86 798.649C1429.05 799.323 1430.77 814.588 1439.08 815.112C1447.38 815.635 1459.66 799.622 1466.09 804.935C1472.53 810.248 1467.29 824.091 1468.19 833.37C1469.08 842.648 1475.82 846.764 1485.77 849.308C1495.72 851.852 1514.43 843.247 1516.97 839.356C1519.52 835.465 1517.42 817.431 1518.62 812.567C1519.82 807.704 1525.28 808.377 1529.25 804.935C1533.21 801.493 1533.36 754.8 1529.25 748.29C1525.13 741.78 1499.61 726.814 1498.04 721.726C1496.47 716.638 1500.81 705.039 1499.61 701.373C1498.42 697.706 1495.05 702.046 1491.98 697.706C1488.91 693.366 1487.12 674.809 1482.55 674.809C1477.99 674.809 1481.58 703.917 1480.46 707.883C1479.34 711.849 1470.51 711.325 1464.29 709.005C1458.08 706.685 1449.25 675.482 1439.08 674.809C1428.9 674.135 1425.23 688.203 1424.04 690.074C1422.84 691.944 1418.28 690.523 1416.63 690.074C1414.98 689.625 1417.6 683.788 1412.51 682.666C1407.43 681.543 1401.21 692.169 1398.67 694.937C1396.13 697.706 1398.37 710.876 1397.02 716.189C1395.68 721.501 1386.4 724.27 1383.18 726.814C1379.96 729.358 1361.86 726.141 1356.54 726.814C1351.23 727.488 1348.98 734.222 1346.89 737.889C1344.79 741.555 1345.47 771.412 1346.89 775.078C1348.31 778.745 1356.54 780.167 1356.54 785.031C1356.54 789.894 1358.86 820.649 1364.92 820.873C1370.98 821.098 1372.78 812.567 1376.22 810.472Z" fill="#E7E7E7"/>
<path d="M1503.43 855.371C1495.28 855.371 1495.43 865.099 1495.13 868.017C1495.13 871.758 1499.69 877.82 1505.53 878.792C1511.37 879.765 1513.54 871.758 1514.81 866.895C1516.08 862.031 1511.59 855.371 1503.43 855.371Z" fill="#E7E7E7"/>
<path d="M1432.72 623.624C1441.4 629.386 1455.32 623.175 1463.03 628.937C1465.95 634.25 1463.03 648.093 1463.03 654.379C1463.03 660.664 1472.61 665.453 1480.31 665.453C1488.02 665.453 1494.23 655.8 1498.05 654.379C1501.86 652.957 1504.33 663.508 1509.57 665.453C1514.81 667.399 1510.09 643.828 1509.57 638.964C1509.05 634.1 1497.6 623.624 1491.31 620.706C1485.03 617.788 1483.16 623.624 1476.95 623.624C1470.73 623.624 1464.9 607.761 1460.11 605.366C1455.32 602.972 1432.72 602.972 1426.96 605.366C1421.2 607.761 1424.04 617.863 1432.72 623.624Z" fill="#E7E7E7"/>
<path d="M1388.95 608.734C1379.74 607.985 1374.81 619.584 1375.48 626.767C1375.48 633.726 1381.02 640.012 1388.95 640.012C1396.88 640.012 1399.57 626.767 1400.25 621.455C1400.92 616.142 1398.15 609.482 1388.95 608.734Z" fill="#E7E7E7"/>
<path d="M1343.53 578.881C1340.16 581.051 1328.86 578.207 1324.97 580.377C1318.23 592.2 1331.25 610.907 1334.1 614.05C1336.94 617.193 1349.74 614.275 1354.82 614.05C1359.91 613.826 1370.91 599.384 1373.83 595.493C1376.75 591.602 1373.61 561.82 1373.83 557.48C1374.06 553.14 1365.38 543.786 1362.98 544.535C1360.59 545.283 1362.53 553.888 1361.33 557.48C1360.14 561.072 1346.89 576.711 1343.53 578.881Z" fill="#E7E7E7"/>
<path d="M1399.04 551.718C1391.56 551.942 1390.44 563.017 1392.31 568.329C1393.06 572.221 1399.04 574.615 1403.16 574.615C1407.28 574.615 1410.12 566.159 1410.42 561.595C1410.72 557.03 1406.53 551.493 1399.04 551.718Z" fill="#E7E7E7"/>
<path d="M1260.99 546.702C1258.59 548.647 1261.21 562.79 1263.38 569.973C1265.78 573.341 1288.15 590.701 1289.87 597.211C1291.59 603.721 1288.67 609.183 1289.87 614.272C1291.07 619.36 1301.17 628.938 1306.48 631.108C1311.8 633.278 1308.13 612.85 1307.68 609.183C1307.23 605.517 1302.59 606.34 1301.17 602C1299.75 597.66 1299.45 587.333 1299 582.993C1298.55 578.653 1263.38 544.756 1260.99 546.702Z" fill="#E7E7E7"/>
<path d="M1368.74 658.049C1368.44 651.764 1342.33 628.941 1338.21 629.166C1333.65 629.166 1329.31 638.07 1330.06 642.186C1330.81 646.301 1355.27 671.518 1360.59 672.491C1365.9 673.464 1369.04 664.335 1368.74 658.049Z" fill="#E7E7E7"/>
<path d="M1304.99 547.152C1299.9 547.377 1299 554.859 1298.78 559.873C1300.27 566.084 1304.99 570.723 1309.55 570.723C1314.12 570.723 1315.09 559.873 1314.64 555.832C1314.19 551.791 1310.08 546.928 1304.99 547.152Z" fill="#E7E7E7"/>
<path d="M1029.99 702.646C1028.05 706.313 1030.44 710.802 1029.99 717.387C1026.33 722.251 1017.95 726.217 1017.2 733.326C1016.45 740.435 1020.86 755.475 1031.71 761.611C1042.56 767.747 1047.35 756.448 1049.6 752.482C1051.84 748.516 1053.04 683.041 1047.35 682.293C1041.67 681.545 1031.94 698.98 1029.99 702.646Z" fill="#E7E7E7"/>
<path d="M1431 404.38C1426.59 407.972 1421.12 416.111 1426.21 420.543C1431 424.714 1440.58 420.543 1444.62 418.522C1448.66 416.502 1460.56 399.74 1463.78 398.394C1466.99 397.047 1474.78 399.142 1479.79 398.394C1484.8 397.645 1489.52 390.986 1491.31 387.169C1493.11 383.353 1491.54 360.605 1491.31 356.415C1491.09 352.224 1479.19 342.796 1477.32 344.592C1475.45 346.388 1478.14 369.21 1477.32 373.401C1476.5 377.591 1470.59 379.986 1467.14 382.156C1463.7 384.326 1456.14 380.809 1453.37 382.156C1450.61 383.503 1435.42 400.788 1431 404.38Z" fill="#E7E7E7"/>
<path d="M1493.63 323.64C1487.12 323.865 1484.11 331.605 1485.7 337.708C1487.13 343.182 1491.99 346.388 1497.3 346.388C1502.61 346.388 1504.26 337.708 1504.26 333.068C1504.26 328.429 1500.14 323.416 1493.63 323.64Z" fill="#E7E7E7"/>
<path d="M816.735 352.225C809.327 354.47 802.518 363.076 798.477 372.205C795.584 376.52 788.615 385.419 783.886 386.497C777.974 387.844 764.58 385.15 758.369 379.463C752.158 373.776 760.24 343.022 764.58 339.355C768.92 335.688 794.736 337.484 798.477 334.491C802.218 331.498 796.083 314.288 798.477 308.975C800.872 303.662 844.796 264.826 848.986 262.282C853.177 259.738 882.809 259.064 892.91 258.615C903.012 258.166 908.1 244.398 912.665 239.833C917.23 235.269 910.57 205.263 912.665 199.501C914.76 193.739 924.189 187.753 923.964 184.386C923.74 181.018 915.658 182.29 910.57 181.318C905.482 180.345 894.033 197.705 889.319 203.916C884.604 210.127 888.72 224.643 889.319 234.969C889.917 245.296 867.394 246.792 862.455 247.092C857.517 247.391 853.251 240.133 848.986 240.956C848.472 241.055 846.816 242.901 848.986 244.398C853.565 247.556 850.932 253.527 849.734 255.622C848.537 257.717 843 257.942 837.912 253.078C832.823 248.214 838.435 244.024 840.156 243.65C841.877 243.275 842.775 242.452 842.401 239.833C842.027 237.214 836.714 237.514 831.701 231.228C826.687 224.943 829.231 192.467 833.272 184.386C837.313 176.304 889.768 127.89 895.754 124.598C901.74 121.305 924.787 123.101 929.501 124.598C934.216 126.094 932.195 129.761 938.481 134.325C944.766 138.89 957.637 134.325 964.895 135.523C972.154 136.72 978.215 146.971 982.854 150.414C987.493 153.856 983.602 162.985 979.562 164.332C975.521 165.678 972.528 162.611 967.589 165.304C962.65 167.998 969.46 176.005 973.5 179.821C977.541 183.637 1005 181.916 1015.48 179.821C1025.96 177.726 1030.37 162.236 1038.23 159.767C1046.08 157.298 1082.38 160.141 1092.48 159.767C1102.58 159.393 1109.46 137.992 1118.67 134.325C1127.87 130.659 1159.15 136.271 1172.17 135.523C1185.19 134.774 1227.92 76.4832 1233.45 73.2655C1238.99 70.0479 1294.59 72.2928 1305.51 75.3607C1316.44 78.4287 1331.25 100.578 1337.99 105.142C1344.72 109.707 1405.78 103.571 1412.67 106.863C1419.55 110.156 1425.84 122.727 1431.75 127.067C1437.66 131.407 1550.35 123.101 1555.89 127.067C1561.43 131.033 1566.81 139.863 1571.75 143.529C1576.69 147.196 1633.11 141.434 1640.52 143.529C1647.93 145.625 1652.19 150.189 1655.04 154.604C1657.88 159.019 1656.98 180.046 1655.04 186.331C1653.09 192.617 1635.96 209.453 1629.67 212.895C1623.38 216.337 1609.24 212.521 1603.33 212.895C1597.58 213.259 1595.73 216.523 1592.53 222.138L1592.26 222.623C1588.89 228.534 1592.41 276.275 1590.68 280.69C1588.96 285.104 1563 310.845 1556.86 303.812C1550.73 296.778 1554.24 261.758 1555.89 248.813C1557.54 246.942 1572.95 221.051 1566.81 214.766C1560.68 208.48 1543.92 223.221 1537.03 228.31C1530.15 233.398 1488.69 227.786 1484.65 229.507C1480.61 231.228 1464.07 246.718 1463.48 253.003C1462.88 259.289 1471.71 262.506 1475.15 268.493C1478.59 274.479 1476.27 314.138 1475.15 319.451C1474.03 324.763 1455.1 341.076 1452.78 342.947C1450.46 344.817 1444.54 340.702 1438.26 342.947C1431.97 345.192 1418.58 355.368 1418.58 361.654C1418.58 367.939 1425.09 367.191 1426.59 373.327C1428.08 379.463 1419.55 389.939 1412.44 389.415C1405.33 388.891 1394.86 363.599 1387.08 362.851C1379.29 362.103 1368.89 371.456 1367.02 380.96C1365.15 390.463 1393.96 410.367 1396.8 415.156C1399.65 419.945 1398.15 433.863 1396.8 442.693C1395.46 451.523 1356.85 486.018 1352.88 488.563C1348.91 491.107 1329.16 487.216 1324.74 488.563C1320.33 489.91 1313.15 494.25 1312.92 500.011C1312.7 505.773 1320.4 511.46 1321.38 516.399C1322.35 521.337 1317.34 538.174 1309.33 538.548C1301.32 538.922 1280.3 508.018 1277 506.297C1273.71 504.576 1266.3 506.896 1262.71 505.324C1259.12 503.753 1255.08 497.318 1248.57 490.433C1242.06 483.549 1228.52 480.556 1221.33 481.678C1214.15 482.801 1197.16 505.1 1188.11 516.399C1179.05 527.698 1181.3 547.378 1172.24 548.126C1163.19 548.874 1150.32 528.97 1148.45 523.208C1146.58 517.446 1144.63 491.855 1144.63 484.672C1144.63 477.488 1134.83 469.032 1126.52 464.917C1118.22 460.801 1100.48 464.917 1093.3 464.917C1086.12 464.917 1087.99 457.509 1081.93 454.366C1075.87 451.223 1060.08 455.189 1053.19 454.366C1046.31 453.543 1037.03 440.373 1033.06 437.679C1029.1 434.986 1023.56 437.006 1022.36 441.421C1021.17 445.836 1047.51 462.897 1061.27 464.917C1075.04 466.937 1073.4 490.882 1069.36 498.964C1065.31 507.045 1048.7 518.419 1040.62 528.97C1032.54 539.521 1018.7 543.187 1002.91 538.323C987.119 533.46 988.316 506.671 986.296 495.746C984.276 484.821 972.528 479.134 966.092 469.032C959.657 458.931 962.8 432.142 951.501 432.142C940.202 432.142 946.637 454.441 947.834 464.917C949.032 475.393 974.548 489.236 975.745 495.746C976.943 502.256 976.194 514.378 982.255 528.97C988.316 543.561 1019.52 558.153 1030.89 558.153C1042.27 558.153 1046.31 535.48 1048.7 538.323C1051.1 541.167 1051.17 570.724 1048.7 575.962C1046.23 581.2 1036.13 592.2 1030.89 595.417C1025.66 598.635 1020.34 595.043 1014.28 595.417C1008.22 595.792 986.296 623.777 986.296 632.682C986.296 641.587 992.357 648.097 998.044 655.355C1003.73 662.613 1000.51 695.463 998.044 702.796C995.575 710.129 972.977 723.449 969.31 731.53C965.643 739.612 971.33 766.026 969.31 772.461C967.29 778.896 954.719 793.937 945.814 797.978C936.909 802.018 898.822 799.25 885.802 797.978C872.782 796.706 858.265 770.067 855.047 763.182C851.83 756.298 856.244 693.892 855.047 687.83C853.85 681.769 844.945 680.497 841.653 672.79C838.361 665.083 841.653 593.771 841.653 586.064C841.653 578.357 828.708 565.037 813.742 563.391C798.776 561.745 791.817 574.316 783.362 579.18C774.906 584.044 755.75 580.826 748.043 579.18C740.335 577.534 711.601 544.385 704.717 535.48C697.833 526.575 703.071 479.957 704.717 471.427C706.363 462.897 731.431 443.067 738.764 441.421C746.097 439.775 741.608 428.475 744.002 419.945C746.397 411.415 753.356 402.959 760.24 396.898C767.124 390.837 780.892 396.898 789.797 396.898C798.702 396.898 791.443 385.15 803.191 382.681C814.939 380.211 834.769 379.463 838.809 385.15C842.85 390.837 852.204 417.551 870.462 419.945C888.72 422.34 896.801 406.626 910.57 406.626C924.338 406.626 928.005 413.884 951.501 417.551C974.997 421.217 968.861 404.979 968.487 396.898C968.113 388.816 944.617 391.211 935.263 385.15C925.91 379.089 933.243 366.069 935.263 362.028C937.284 357.987 954.344 345.865 960.405 345.865C966.467 345.865 970.133 352.225 980.609 354.321C991.085 356.416 1002.53 352.225 1004.55 343.022C1006.57 333.818 987.942 322.743 978.589 322.369C969.235 321.995 967.29 334.491 960.405 334.491C953.521 334.491 952.249 325.138 947.011 326.41C941.773 327.682 930.773 342.198 928.005 345.865C925.236 349.532 931.597 357.164 928.005 362.028C924.413 366.892 917.828 362.028 913.787 366.069C909.747 370.109 912.141 379.463 905.257 379.463C898.373 379.463 897.176 366.069 896.801 357.164C896.427 348.26 865.972 323.94 862.306 330.45C858.639 336.96 885.053 352.225 886.625 357.164C888.196 362.103 886.625 362.477 882.584 366.069C878.543 369.66 878.169 376.994 870.462 379.463C873.305 366.892 846.966 339.355 841.653 339.355C836.34 339.355 835.218 346.613 831.925 349.083C828.633 351.552 824.143 349.981 816.735 352.225Z" fill="#E7E7E7"/>
<path d="M751.485 262.43C748.866 264.076 749.465 282.11 751.485 285.402C757.771 287.348 766.226 282.484 768.546 279.865C770.866 277.246 769.22 259.138 766.226 257.491C763.233 255.845 754.104 260.784 751.485 262.43Z" fill="#E7E7E7"/>
<path d="M782.162 235.194C779.947 233.518 779.842 224.344 777.523 224.344C769.367 224.344 770.115 235.194 770.414 239.983C770.713 244.772 771.911 248.289 775.802 250.16C779.693 252.03 776.7 255.846 777.523 260.86C778.346 265.873 785.679 268.567 785.679 271.785C785.679 275.003 786.352 274.404 779.842 279.193C773.332 283.982 771.611 293.485 771.911 295.805C772.21 298.124 777.523 299.322 777.523 295.805C777.523 292.288 782.91 289.295 789.42 289.744C795.931 290.193 805.958 284.955 806.406 271.785C806.855 258.615 789.57 255.547 789.42 252.18C789.271 248.813 791.441 247.84 793.087 246.268C794.733 244.697 794.9 240.493 793.087 237.663C790.727 233.98 784.931 237.289 782.162 235.194Z" fill="#E7E7E7"/>
<path d="M705.539 171.965C694.315 172.339 691.995 181.168 691.621 189.549C691.621 192.218 693.447 198.424 700.75 201.896C706.362 204.564 716.133 204.391 722.525 198.379C730.083 191.27 730.557 185.856 727.539 178.774C724.012 170.501 716.763 171.59 705.539 171.965Z" fill="#E7E7E7"/>
<path d="M514.203 22.3058C507.618 23.3534 498.519 40.5298 485.918 49.0195C475.34 56.1468 457.872 44.0809 456.585 63.3866C455.922 73.3387 464.966 76.0326 469.98 79.9236C474.993 83.8147 505.822 79.9236 513.455 82.0188C521.087 84.114 548.549 113.447 551.168 121.079C553.787 128.712 550.42 155.126 551.168 161.412C551.917 167.697 566.658 172.411 567.182 176.602C567.705 180.792 563.216 189.397 563.515 194.935C563.814 200.472 579.977 215.662 583.943 219.853C587.909 224.043 603.324 230.852 612.976 226.138C622.629 221.424 615.371 199.873 616.419 194.935C617.466 189.996 650.465 161.935 655.18 159.316C659.894 156.697 672.989 158.793 680.322 159.316C687.655 159.84 697.383 144.65 700.002 139.936C702.621 135.222 698.655 114.794 700.002 109.032C701.349 103.27 712.274 91.7465 712.274 86.5085C712.274 81.2705 704.192 73.1143 703.668 65.4818C703.145 57.8493 722.001 43.7816 726.192 38.7681C730.382 33.7546 727.239 24.401 724.845 20.4351C722.45 16.4692 683.465 20.9589 675.308 20.4351C667.152 19.9113 662.513 4.7212 658.846 1.57841C655.18 -1.56438 601.453 0.830126 595.99 1.57841C590.528 2.32669 581.848 20.4351 576.086 22.3058C570.324 24.1765 520.788 21.2582 514.203 22.3058Z" fill="#E7E7E7"/>
<path d="M449.927 45.5027C447.009 47.2985 439.676 48.6454 429.05 50.6659C419.622 52.4587 420.519 66.8288 419.622 81.2707C418.724 95.7125 395.228 96.835 379.364 95.0391C363.5 93.2432 362.602 63.6112 364.323 55.9787C366.045 48.3462 385.051 26.6459 395.228 23.0542C411.132 17.441 457.859 21.857 463.396 23.0542C468.933 24.2515 465.439 31.3751 463.396 35.9995C460.795 41.8881 452.845 43.7068 449.927 45.5027Z" fill="#E7E7E7"/>
<path d="M319.276 110.23C319.446 102.669 327.656 96.8359 330.5 96.8359C333.792 96.8359 343.595 104.394 343.595 112.026C343.595 118.985 334.316 125.495 328.479 125.346C322.643 125.196 319.051 120.182 319.276 110.23Z" fill="#E7E7E7"/>
<path d="M379.67 197.777C379.841 190.215 388.051 184.383 390.894 184.383C394.187 184.383 403.989 191.94 403.989 199.573C403.989 206.532 394.711 213.042 388.874 212.892C383.037 212.743 379.445 207.729 379.67 197.777Z" fill="#E7E7E7"/>
<path d="M432.641 102.296C429.049 100.126 403.907 100.127 386.921 104.466C376.091 107.234 369.65 118.983 367.914 125.867C365.744 134.473 381.907 143.751 385.798 147.343C389.689 150.935 415.505 147.717 419.396 148.765C423.287 149.812 429.797 154.826 429.797 159.839C429.797 164.853 428.376 176.601 429.797 183.784C431.219 190.968 459.804 214.539 470.878 215.212C481.953 215.886 485.17 202.342 485.544 195.233C485.919 188.124 474.844 177.723 474.096 170.54C473.347 163.356 484.497 155.574 482.701 151.608C480.905 147.642 436.233 104.466 432.641 102.296Z" fill="#E7E7E7"/>
<path d="M341.956 92.9365C342.076 87.618 347.833 83.5156 349.827 83.5156C352.136 83.5156 359.01 88.8313 359.01 94.1996C359.01 99.0942 352.503 103.673 348.41 103.568C344.318 103.463 341.799 99.9363 341.956 92.9365Z" fill="#E7E7E7"/>
<path d="M308.278 53.2116C314.938 49.096 342.325 48.7968 348.311 53.2116C351.439 55.5184 351.005 59.4224 348.311 63.1638C345.617 66.9051 313.052 95.9086 307.305 96.6868C300.122 97.6596 290.244 87.4081 289.271 76.4832C288.493 67.7432 301.618 57.3271 308.278 53.2116Z" fill="#E7E7E7"/>
<path d="M258.966 110.077C237.355 88.1677 211.675 88.9012 203.293 95.5607C195.115 102.059 189.944 112.502 200.899 122.2C214.592 134.322 252.081 127.812 252.081 127.812C252.081 127.812 270.265 145.172 299.298 146.369C314.862 147.011 316.883 126.165 314.862 121.302C312.842 116.438 296.829 108.431 258.966 110.077Z" fill="#E7E7E7"/>
<path d="M76.0089 213.641C86.1108 209.75 122.627 215.138 134.3 217.532C154.429 237.187 195.57 278.218 199.101 285.102C203.516 293.707 197.081 392.181 199.101 402.807C201.122 413.433 259.189 463.642 262.631 465.363C266.073 467.084 268.168 452.942 269.141 448.228C270.114 443.514 236.216 412.759 241.679 406.922C247.141 401.086 300.045 459.826 304.235 465.363C308.426 470.901 303.487 494.846 304.235 502.104C304.984 509.362 323.466 522.308 327.582 525.75C331.697 529.192 352.649 524.702 357.438 525.75C362.227 526.797 414.981 579.701 414.981 583.442C414.981 587.184 400.39 598.932 396.947 603.347C393.505 607.762 392.832 666.876 396.947 677.576C401.063 688.277 437.13 712.222 440.198 719.78C443.266 727.337 441.919 833.818 440.198 837.26C438.477 840.702 428.824 845.491 426.43 848.933C424.035 852.375 424.709 912.462 426.43 918.598C428.151 924.734 450.525 946.435 456.361 950.924C461.03 954.516 478.909 952.421 487.265 950.924C487.141 948.854 486.966 943.815 487.265 940.224C487.639 935.734 470.055 922.714 468.034 918.598C466.014 914.483 466.613 894.953 468.034 888.068C469.456 881.184 528.795 829.328 532.536 826.26C536.278 823.192 531.564 804.261 532.536 798.05C533.509 791.839 563.141 764.452 569.651 761.683C576.161 758.915 580.277 762.357 590.977 761.683C601.678 761.01 608.786 748.963 611.181 743.799C613.575 738.636 610.882 692.692 611.181 686.855C611.48 681.018 624.276 675.481 626.97 671.74C629.663 667.998 628.017 630.135 626.97 624.299C625.922 618.462 573.393 572.443 566.883 570.048C560.372 567.654 514.353 570.422 510.238 570.048C506.122 569.674 495.122 548.423 489.66 548.423H434.362C428.226 548.423 431.294 554.259 426.43 554.634C421.566 555.008 374.948 497.614 371.88 490.057C368.812 482.499 364.771 485.792 340.602 484.744C328.854 461.173 341.649 444.411 345.84 441.269C349.192 438.754 375.971 440.221 388.941 441.269C400.464 456.384 412.512 458.479 414.981 448.228C417.45 437.976 399.941 426.303 399.043 415.902C398.145 405.501 416.328 393.453 420.069 390.011C423.811 386.569 423.287 378.488 423.287 368.386C423.287 358.284 460.402 346.237 459.878 330.373C459.354 314.51 472.823 302.986 475.667 300.068C478.51 297.149 500.734 298.646 507.394 297.823C514.054 297 515.999 290.041 517.795 285.102C519.591 280.163 518.319 261.756 517.795 256.293C517.271 250.831 488.088 224.341 482.327 221.124C476.565 217.906 441.994 221.124 437.654 221.124C433.314 221.124 427.028 233.246 423.287 239.606C419.546 245.967 422.688 264.375 423.287 269.837C423.886 275.299 418.348 285.102 409.145 282.558C399.941 280.014 350.329 228.382 349.207 217.382C348.085 206.383 371.656 187.152 375.996 182.213C380.336 177.274 376.295 160.064 375.996 151.384C375.696 142.704 354.969 130.956 353.248 132.377C351.527 133.799 350.404 153.778 343.445 158.418C336.486 163.057 268.841 159.989 261.059 158.418C253.277 156.846 250.957 140.534 243.924 134.323C236.89 128.112 184.061 134.323 176.279 134.323C168.497 134.323 163.109 152.207 153.007 153.778C142.905 155.35 129.661 134.323 122.627 128.861C115.593 123.398 46.4518 127.289 31.7106 134.323C16.9694 141.357 27.0712 188.723 24.6767 195.757C22.2822 202.791 0.582031 207.43 0.582031 217.532C0.582031 227.634 23.1802 250.157 39.4927 250.905C55.8053 251.654 65.9071 217.532 76.0089 213.641Z" fill="#E7E7E7"/>
</svg>
