<svg width="266" height="265" fill="none" xmlns="http://www.w3.org/2000/svg"><rect x="87.488" y=".004" width="12.741" height="50.961" rx="6.359" fill="#EFEFEF"/><rect x="125.703" width="12.741" height="50.961" rx="6.359" fill="#EFEFEF"/><rect x="163.93" width="12.741" height="50.961" rx="6.359" fill="#EFEFEF"/><rect x="265.012" y="89.293" width="12.74" height="50.962" rx="6.359" transform="rotate(90 265.012 89.293)" fill="#EFEFEF"/><rect x="265.012" y="127.512" width="12.74" height="50.962" rx="6.359" transform="rotate(90 265.012 127.512)" fill="#EFEFEF"/><rect x="265.012" y="165.73" width="12.74" height="50.962" rx="6.359" transform="rotate(90 265.012 165.73)" fill="#EFEFEF"/><rect x="50.965" y="89.293" width="12.74" height="50.962" rx="6.359" transform="rotate(90 50.965 89.293)" fill="#EFEFEF"/><rect x="50.965" y="127.512" width="12.74" height="50.962" rx="6.359" transform="rotate(90 50.965 127.512)" fill="#EFEFEF"/><rect x="50.965" y="165.73" width="12.74" height="50.962" rx="6.359" transform="rotate(90 50.965 165.73)" fill="#EFEFEF"/><rect x="87.488" y="214.039" width="12.741" height="50.961" rx="6.359" fill="#EFEFEF"/><rect x="125.711" y="214.039" width="12.741" height="50.961" rx="6.359" fill="#EFEFEF"/><rect x="163.93" y="214.039" width="12.741" height="50.961" rx="6.359" fill="#EFEFEF"/><path fill="#EFEFEF" d="M33.984 33.977h197.058V231.03H33.984z"/><path d="M120.401 100.818h24.196c6.672 0 12.099 5.33 12.099 11.882h16.13c0-15.29-12.661-27.725-28.229-27.725h-4.032V69.133h-16.131v15.842h-4.033c-15.568 0-28.23 12.435-28.23 27.725 0 15.289 12.662 27.724 28.23 27.724h24.196c6.672 0 12.099 5.33 12.099 11.882s-5.427 11.882-12.099 11.882h-24.196c-6.671 0-12.098-5.33-12.098-11.882H92.172c0 15.29 12.661 27.725 28.229 27.725h4.033v15.842h16.131v-15.842h4.032c15.568 0 28.229-12.435 28.229-27.725 0-15.289-12.661-27.724-28.229-27.724h-24.196c-6.671 0-12.098-5.33-12.098-11.882s5.427-11.882 12.098-11.882z" fill="#fff"/></svg>