<svg width="265" height="265" fill="none" xmlns="http://www.w3.org/2000/svg"><path d="M194.609 17.078c-31.395 0-51.548 21.745-62.109 41.328-10.561-19.584-30.714-41.328-62.11-41.328C30.557 17.078 0 49.398 0 92.266c0 11.185 2.24 21.511 6.363 31.433h59.229l13.381-26.763c2.639-5.262 11.251-5.262 13.89 0l24.11 48.22 8.582-17.165c2.639-5.262 11.251-5.262 13.89 0l8.582 17.165 24.11-48.22c2.639-5.261 11.251-5.261 13.89 0l13.381 26.763h59.229c4.123-9.922 6.363-20.248 6.363-31.433 0-42.867-30.556-75.188-70.391-75.188z" fill="#EFEFEF"/><path d="M194.61 139.23a7.767 7.767 0 01-6.945-4.292l-8.583-17.165-24.109 48.22a7.767 7.767 0 01-13.89 0l-8.583-17.165-8.582 17.165c-2.639 5.262-11.251 5.262-13.89 0l-24.11-48.22-8.582 17.165a7.767 7.767 0 01-6.945 4.292h-55.88c15.98 25.14 44.758 49.021 80.755 79.403 10.107 8.529 20.858 17.605 32.147 27.393a7.752 7.752 0 005.087 1.895 7.752 7.752 0 005.087-1.895c11.29-9.788 22.04-18.863 32.146-27.393 35.998-30.382 64.776-54.263 80.755-79.403H194.61z" fill="#EFEFEF"/></svg>