<svg width="265" height="255" fill="none" xmlns="http://www.w3.org/2000/svg"><path d="M122.313 99.459v114.674c0 5.311-2.07 10.033-6.21 14.175-4.14 4.14-8.867 6.211-14.173 6.211-5.307 0-10.03-2.071-14.173-6.211-4.14-4.142-6.21-8.865-6.21-14.175 0-2.76-1.008-5.148-3.026-7.166-2.019-2.016-4.405-3.025-7.167-3.025-2.761 0-5.15 1.009-7.168 3.025-2.017 2.018-3.026 4.405-3.026 7.166 0 11.041 4.034 20.594 12.103 28.665 8.068 8.073 17.625 12.1 28.666 12.1 11.04 0 20.596-4.028 28.665-12.1 8.067-8.071 12.102-17.624 12.102-28.665V99.458c-3.504-1.167-6.902-1.751-10.192-1.751s-6.689.584-10.191 1.752zm20.38-56.824v-32.34c0-2.76-1.011-5.15-3.027-7.167C137.65 1.111 135.261.102 132.5.102c-2.76 0-5.148 1.009-7.166 3.026-2.018 2.019-3.025 4.408-3.025 7.168v32.338c4.457-.21 7.855-.318 10.191-.318 2.336 0 5.734.108 10.193.319z" fill="#EFEFEF"/><path d="M264.834 124.956c-3.505-14.65-9.638-28-18.394-40.051-8.763-12.05-19.086-21.978-30.978-29.78-11.887-7.804-24.972-13.828-39.252-18.075a152.499 152.499 0 00-43.714-6.37c-20.173 0-39.307 3.61-57.41 10.828-18.102 7.22-33.92 18.075-47.455 32.566C14.094 88.566 4.936 105.528.16 124.956c-.109.21-.161.584-.161 1.113 0 1.38.504 2.577 1.513 3.583 1.009 1.009 2.202 1.512 3.582 1.512 1.17 0 2.39-.529 3.663-1.592 5.202-4.882 10.139-8.545 14.81-10.987 4.673-2.441 10.087-3.663 16.244-3.663 7.22 0 14.014 1.966 20.384 5.893 6.37 3.927 11.84 9.078 16.403 15.444.744 1.065 1.674 2.552 2.788 4.457 1.116 1.916 1.886 3.19 2.31 3.825 1.167 1.803 2.655 2.708 4.459 2.708 1.911 0 3.45-.905 4.618-2.708.425-.636 1.195-1.909 2.309-3.825 1.115-1.905 2.045-3.392 2.787-4.457 4.564-6.364 10.006-11.517 16.323-15.444 6.317-3.927 13.085-5.893 20.305-5.893 7.219 0 13.988 1.964 20.306 5.893 6.316 3.927 11.758 9.078 16.32 15.444.748 1.065 1.674 2.552 2.791 4.457 1.115 1.916 1.886 3.19 2.313 3.825 1.165 1.803 2.703 2.708 4.616 2.708 1.805 0 3.29-.905 4.455-2.708.427-.636 1.198-1.909 2.313-3.825 1.116-1.905 2.042-3.392 2.79-4.457 4.566-6.364 10.033-11.517 16.401-15.444 6.372-3.929 13.168-5.893 20.387-5.893 6.158 0 11.571 1.221 16.244 3.663 4.671 2.441 9.605 6.104 14.809 10.987 1.274 1.065 2.496 1.592 3.664 1.592 1.379 0 2.575-.504 3.581-1.512 1.008-1.009 1.512-2.201 1.512-3.583-.004-.531-.054-.903-.166-1.113z" fill="#EFEFEF"/></svg>