<svg width="167" height="265" fill="none" xmlns="http://www.w3.org/2000/svg"><path d="M32.636 184.071a5.53 5.53 0 00-4.328-4.206c-2.13-.442-4.328.463-5.587 2.252L1.7 212.148a5.434 5.434 0 00-1.005 3.169v44.163a5.52 5.52 0 003.412 5.101c.685.288 1.402.42 2.109.42a5.562 5.562 0 003.908-1.612l32.262-32.251a5.513 5.513 0 001.358-5.575c-2.32-7.243-6.813-22.225-11.108-41.492zm132.665 28.077l-21.022-30.031a5.495 5.495 0 00-5.587-2.252 5.545 5.545 0 00-4.328 4.206c-4.306 19.255-8.8 34.249-11.107 41.47a5.514 5.514 0 001.358 5.575l32.262 32.251a5.516 5.516 0 003.909 1.612 5.41 5.41 0 002.109-.42 5.52 5.52 0 003.411-5.101v-44.163a5.413 5.413 0 00-1.005-3.147z" fill="#EFEFEF"/><path d="M111.412 226.357c3.566-10.676 21.772-67.813 21.772-121.46 0-59.632-44.03-101.631-45.908-103.398-2.109-1.999-5.432-1.999-7.552 0-1.877 1.766-45.908 43.766-45.908 103.398 0 53.647 18.218 110.772 21.773 121.46l-10.456 31.367A5.533 5.533 0 0050.366 265h66.246c1.777 0 3.444-.85 4.471-2.296a5.49 5.49 0 00.762-4.98l-10.433-31.367zM83.501 110.428c-9.131 0-16.562-7.43-16.562-16.561s7.43-16.562 16.562-16.562c9.13 0 16.561 7.43 16.561 16.562 0 9.131-7.43 16.561-16.561 16.561z" fill="#EFEFEF"/></svg>