<svg width="156" height="39" fill="none" xmlns="http://www.w3.org/2000/svg"><path fill-rule="evenodd" clip-rule="evenodd" d="M.152 25.661c.193 1.487.331 2.23.607 3.006.578 1.843 1.598 3.233 2.975 4.138 1.488 1.002 3.803 1.584 6.145 1.584 3.224 0 5.649-.938 7.247-2.748 1.268-1.455 1.93-3.523 1.93-5.948 0-2.973-.993-5.139-2.977-6.593-1.047-.776-2.37-1.326-4.464-1.843-3.251-.776-3.251-.776-3.802-1.067-.882-.485-1.296-1.164-1.296-2.069 0-1.486 1.24-2.553 2.921-2.553 2.095 0 3.086.873 3.417 2.974l5.842-.744c-.358-1.842-.689-2.812-1.378-3.879-1.488-2.424-4.16-3.685-7.66-3.685C4.23 6.234.813 9.37.813 14.348c0 2.618.937 4.784 2.673 6.206 1.02.84 1.902 1.228 4.437 1.875 2.865.776 3.554 1.002 4.133 1.325.716.388 1.157 1.26 1.157 2.263 0 1.81-1.267 2.909-3.389 2.909-1.405 0-2.562-.55-3.224-1.52-.413-.646-.606-1.228-.716-2.391l-5.732.646zm33.256 8.113l5.101-16.887v16.888h4.988V6.88H36.83l-5.54 17.94-5.515-17.94h-6.72v26.894h4.988V16.81l5.1 16.963h4.265zm53.473 0l-3.362-9.05c-.881-2.295-1.515-3.039-2.92-3.556 1.35-.517 1.928-.873 2.617-1.616 1.075-1.196 1.626-3.006 1.626-5.301 0-4.655-2.59-7.37-7.054-7.37h-11.05v26.894h5.484V23.592h2.81c.882 0 1.571.26 2.15.873.689.711 1.02 1.455 1.901 4.267l1.35 5.043h6.448zm-14.66-15.709v-5.754h4.327c1.708 0 2.59.938 2.59 2.748 0 1.842-.992 3.006-2.618 3.006h-4.298zm-19.98 5.047h5.717l-.272-1.006-2.617-9.698-2.563 9.698-.266 1.006zm7.24 5.643h-8.73l-1.325 5.02h-5.93c1.976-6.528 0 0 8.124-26.894h7.03l8.088 26.894h-5.901l-1.356-5.02zm38.422-16.153h7.413V6.881H84.842v5.721h7.412v21.173h5.65V12.602z" fill="#000"/><path fill-rule="evenodd" clip-rule="evenodd" d="M113.411 38.559L125.391 0h-11.98l-11.645 38.559h11.645z" fill="#FC6175"/><path fill-rule="evenodd" clip-rule="evenodd" d="M127.512 6.88v26.895h5.621V6.88h-5.621zm21.024 5.722h7.413V6.881h-20.474v5.721h7.413v21.173h5.648V12.602z" fill="#000"/></svg>