<svg width="1657" height="953" fill="none" xmlns="http://www.w3.org/2000/svg"><path d="M1645.76 826.709c-9.51-.374-9.8 9.653-9.51 13.769 0 7.782 4.27 11.673 10.93 12.197 6.66.524 10.1-10.027 9.8-14.891-.3-4.864-1.72-10.7-11.22-11.075zm-22.6 23.873c-5.84.149-28.44 28.135-28.44 32.849 0 5.687 5.54 9.653 12.05 10.327 6.51.673 27.91-28.136 29.48-33.523 1.57-5.388-7.26-9.803-13.09-9.653zm-246.94-40.11c3.44-2.095 10.4 2.993 14.59 2.095 4.64-5.537 7.86-14.591 23.05-13.918 15.19.674 16.91 15.939 25.22 16.463 8.3.523 20.58-15.49 27.01-10.177 6.44 5.313 1.2 19.156 2.1 28.435.89 9.278 7.63 13.394 17.58 15.938 9.95 2.544 28.66-6.061 31.2-9.952 2.55-3.891.45-21.925 1.65-26.789 1.2-4.863 6.66-4.19 10.63-7.632 3.96-3.442 4.11-50.135 0-56.645-4.12-6.51-29.64-21.476-31.21-26.564-1.57-5.088 2.77-16.687 1.57-20.353-1.19-3.667-4.56.673-7.63-3.667-3.07-4.34-4.86-22.897-9.43-22.897-4.56 0-.97 29.108-2.09 33.074-1.12 3.966-9.95 3.442-16.17 1.122-6.21-2.32-15.04-33.523-25.21-34.196-10.18-.674-13.85 13.394-15.04 15.265-1.2 1.87-5.76.449-7.41 0-1.65-.449.97-6.286-4.12-7.408-5.08-1.123-11.3 9.503-13.84 12.271-2.54 2.769-.3 15.939-1.65 21.252-1.34 5.312-10.62 8.081-13.84 10.625-3.22 2.544-21.32-.673-26.64 0-5.31.674-7.56 7.408-9.65 11.075-2.1 3.666-1.42 33.523 0 37.189 1.42 3.667 9.65 5.089 9.65 9.953 0 4.863 2.32 35.618 8.38 35.842 6.06.225 7.86-8.306 11.3-10.401zm127.21 44.899c-8.15 0-8 9.728-8.3 12.646 0 3.741 4.56 9.803 10.4 10.775 5.84.973 8.01-7.034 9.28-11.897 1.27-4.864-3.22-11.524-11.38-11.524zm-70.71-231.747c8.68 5.762 22.6-.449 30.31 5.313 2.92 5.313 0 19.156 0 25.442 0 6.285 9.58 11.074 17.28 11.074 7.71 0 13.92-9.653 17.74-11.074 3.81-1.422 6.28 9.129 11.52 11.074 5.24 1.946.52-21.625 0-26.489-.52-4.864-11.97-15.34-18.26-18.258-6.28-2.918-8.15 2.918-14.36 2.918-6.22 0-12.05-15.863-16.84-18.258-4.79-2.394-27.39-2.394-33.15 0-5.76 2.395-2.92 12.497 5.76 18.258zm-43.77-14.89c-9.21-.749-14.14 10.85-13.47 18.033 0 6.959 5.54 13.245 13.47 13.245 7.93 0 10.62-13.245 11.3-18.557.67-5.313-2.1-11.973-11.3-12.721zm-45.42-29.853c-3.37 2.17-14.67-.674-18.56 1.496-6.74 11.823 6.28 30.53 9.13 33.673 2.84 3.143 15.64.225 20.72 0 5.09-.224 16.09-14.666 19.01-18.557 2.92-3.891-.22-33.673 0-38.013.23-4.34-8.45-13.694-10.85-12.945-2.39.748-.45 9.353-1.65 12.945-1.19 3.592-14.44 19.231-17.8 21.401zm55.51-27.163c-7.48.224-8.6 11.299-6.73 16.611.75 3.892 6.73 6.286 10.85 6.286 4.12 0 6.96-8.456 7.26-13.02.3-4.565-3.89-10.102-11.38-9.877zm-138.05-5.016c-2.4 1.945.22 16.088 2.39 23.271 2.4 3.368 24.77 20.728 26.49 27.238 1.72 6.51-1.2 11.972 0 17.061 1.2 5.088 11.3 14.666 16.61 16.836 5.32 2.17 1.65-18.258 1.2-21.925-.45-3.666-5.09-2.843-6.51-7.183s-1.72-14.667-2.17-19.007c-.45-4.34-35.62-38.237-38.01-36.291zm107.75 111.347c-.3-6.285-26.41-29.108-30.53-28.883-4.56 0-8.9 8.904-8.15 13.02.75 4.115 25.21 29.332 30.53 30.305 5.31.973 8.45-8.156 8.15-14.442zm-63.75-110.897c-5.09.225-5.99 7.707-6.21 12.721 1.49 6.211 6.21 10.85 10.77 10.85 4.57 0 5.54-10.85 5.09-14.891-.45-4.041-4.56-8.904-9.65-8.68zm-275 155.494c-1.94 3.667.45 8.156 0 14.741-3.66 4.864-12.04 8.83-12.79 15.939s3.66 22.149 14.51 28.285c10.85 6.136 15.64-5.163 17.89-9.129 2.24-3.966 3.44-69.441-2.25-70.189-5.68-.748-15.41 16.687-17.36 20.353zM1431 404.38c-4.41 3.592-9.88 11.731-4.79 16.163 4.79 4.171 14.37 0 18.41-2.021 4.04-2.02 15.94-18.782 19.16-20.128 3.21-1.347 11 .748 16.01 0 5.01-.749 9.73-7.408 11.52-11.225 1.8-3.816.23-26.564 0-30.754-.22-4.191-12.12-13.619-13.99-11.823-1.87 1.796.82 24.618 0 28.809-.82 4.19-6.73 6.585-10.18 8.755-3.44 2.17-11-1.347-13.77 0-2.76 1.347-17.95 18.632-22.37 22.224zm62.63-80.74c-6.51.225-9.52 7.965-7.93 14.068 1.43 5.474 6.29 8.68 11.6 8.68s6.96-8.68 6.96-13.32c0-4.639-4.12-9.652-10.63-9.428z" fill="#E7E7E7"/><path d="M816.735 352.225c-7.408 2.245-14.217 10.851-18.258 19.98-2.893 4.315-9.862 13.214-14.591 14.292-5.912 1.347-19.306-1.347-25.517-7.034-6.211-5.687 1.871-36.441 6.211-40.108 4.34-3.667 30.156-1.871 33.897-4.864 3.741-2.993-2.394-20.203 0-25.516 2.395-5.313 46.319-44.149 50.509-46.693 4.191-2.544 33.823-3.218 43.924-3.667 10.102-.449 15.19-14.217 19.755-18.782 4.565-4.564-2.095-34.57 0-40.332 2.095-5.762 11.524-11.748 11.299-15.115-.224-3.368-8.306-2.096-13.394-3.068-5.088-.973-16.537 16.387-21.251 22.598-4.715 6.211-.599 20.727 0 31.053.598 10.327-21.925 11.823-26.864 12.123-4.938.299-9.204-6.959-13.469-6.136-.514.099-2.17 1.945 0 3.442 4.579 3.158 1.946 9.129.748 11.224-1.197 2.095-6.734 2.32-11.822-2.544-5.089-4.864.523-9.054 2.244-9.428 1.721-.375 2.619-1.198 2.245-3.817-.374-2.619-5.687-2.319-10.7-8.605-5.014-6.285-2.47-38.761 1.571-46.842 4.041-8.082 56.496-56.496 62.482-59.788 5.986-3.293 29.033-1.497 33.747 0 4.715 1.496 2.694 5.163 8.98 9.727 6.285 4.565 19.156 0 26.414 1.198 7.259 1.197 13.32 11.448 17.959 14.891 4.639 3.442.748 12.571-3.292 13.918-4.041 1.346-7.034-1.721-11.973.972-4.939 2.694 1.871 10.701 5.911 14.517 4.041 3.816 31.5 2.095 41.98 0 10.48-2.095 14.89-17.585 22.75-20.054 7.85-2.469 44.15.374 54.25 0 10.1-.374 16.98-21.775 26.19-25.442 9.2-3.666 40.48 1.946 53.5 1.198 13.02-.749 55.75-59.04 61.28-62.257 5.54-3.218 61.14-.973 72.06 2.095 10.93 3.068 25.74 25.217 32.48 29.781 6.73 4.565 67.79-1.571 74.68 1.721 6.88 3.293 13.17 15.864 19.08 20.204 5.91 4.34 118.6-3.966 124.14 0 5.54 3.966 10.92 12.796 15.86 16.462 4.94 3.667 61.36-2.095 68.77 0 7.41 2.096 11.67 6.66 14.52 11.075 2.84 4.415 1.94 25.442 0 31.727-1.95 6.286-19.08 23.122-25.37 26.564-6.29 3.442-20.43-.374-26.34 0-5.75.364-7.6 3.628-10.8 9.243l-.27.485c-3.37 5.911.15 53.652-1.58 58.067-1.72 4.414-27.68 30.155-33.82 23.122-6.13-7.034-2.62-42.054-.97-54.999 1.65-1.871 17.06-27.762 10.92-34.047-6.13-6.286-22.89 8.455-29.78 13.544-6.88 5.088-48.34-.524-52.38 1.197-4.04 1.721-20.58 17.211-21.17 23.496-.6 6.286 8.23 9.503 11.67 15.49 3.44 5.986 1.12 45.645 0 50.958-1.12 5.312-20.05 21.625-22.37 23.496-2.32 1.87-8.24-2.245-14.52 0-6.29 2.245-19.68 12.421-19.68 18.707 0 6.285 6.51 5.537 8.01 11.673 1.49 6.136-7.04 16.612-14.15 16.088-7.11-.524-17.58-25.816-25.36-26.564-7.79-.748-18.19 8.605-20.06 18.109-1.87 9.503 26.94 29.407 29.78 34.196 2.85 4.789 1.35 18.707 0 27.537-1.34 8.83-39.95 43.325-43.92 45.87-3.97 2.544-23.72-1.347-28.14 0-4.41 1.347-11.59 5.687-11.82 11.448-.22 5.762 7.48 11.449 8.46 16.388.97 4.938-4.04 21.775-12.05 22.149-8.01.374-29.03-30.53-32.33-32.251-3.29-1.721-10.7.599-14.29-.973-3.59-1.571-7.63-8.006-14.14-14.891-6.51-6.884-20.05-9.877-27.24-8.755-7.18 1.123-24.17 23.422-33.22 34.721-9.06 11.299-6.81 30.979-15.87 31.727-9.05.748-21.92-19.156-23.79-24.918-1.87-5.762-3.82-31.353-3.82-38.536 0-7.184-9.8-15.64-18.11-19.755-8.3-4.116-26.04 0-33.22 0s-5.31-7.408-11.37-10.551-21.85.823-28.74 0c-6.88-.823-16.16-13.993-20.13-16.687-3.96-2.693-9.5-.673-10.7 3.742-1.19 4.415 25.15 21.476 38.91 23.496 13.77 2.02 12.13 25.965 8.09 34.047-4.05 8.081-20.66 19.455-28.74 30.006-8.08 10.551-21.92 14.217-37.71 9.353-15.791-4.863-14.594-31.652-16.614-42.577-2.02-10.925-13.768-16.612-20.204-26.714-6.435-10.101-3.292-36.89-14.591-36.89s-4.864 22.299-3.667 32.775c1.198 10.476 26.714 24.319 27.911 30.829 1.198 6.51.449 18.632 6.51 33.224 6.061 14.591 37.265 29.183 48.635 29.183 11.38 0 15.42-22.673 17.81-19.83 2.4 2.844 2.47 32.401 0 37.639-2.47 5.238-12.57 16.238-17.81 19.455-5.23 3.218-10.55-.374-16.61 0-6.06.375-27.984 28.36-27.984 37.265 0 8.905 6.061 15.415 11.748 22.673 5.686 7.258 2.466 40.108 0 47.441-2.469 7.333-25.067 20.653-28.734 28.734-3.667 8.082 2.02 34.496 0 40.931-2.02 6.435-14.591 21.476-23.496 25.517-8.905 4.04-46.992 1.272-60.012 0-13.02-1.272-27.537-27.911-30.755-34.796-3.217-6.884 1.197-69.29 0-75.352-1.197-6.061-10.102-7.333-13.394-15.04-3.292-7.707 0-79.019 0-86.726 0-7.707-12.945-21.027-27.911-22.673-14.966-1.646-21.925 10.925-30.38 15.789-8.456 4.864-27.612 1.646-35.319 0-7.708-1.646-36.442-34.795-43.326-43.7-6.884-8.905-1.646-55.523 0-64.053 1.646-8.53 26.714-28.36 34.047-30.006 7.333-1.646 2.844-12.946 5.238-21.476 2.395-8.53 9.354-16.986 16.238-23.047s20.652 0 29.557 0c8.905 0 1.646-11.748 13.394-14.217 11.748-2.47 31.578-3.218 35.618 2.469 4.041 5.687 13.395 32.401 31.653 34.795 18.258 2.395 26.339-13.319 40.108-13.319 13.768 0 17.435 7.258 40.931 10.925 23.496 3.666 17.36-12.572 16.986-20.653-.374-8.082-23.87-5.687-33.224-11.748-9.353-6.061-2.02-19.081 0-23.122 2.021-4.041 19.081-16.163 25.142-16.163 6.062 0 9.728 6.36 20.204 8.456 10.476 2.095 21.921-2.096 23.941-11.299 2.02-9.204-16.608-20.279-25.961-20.653-9.354-.374-11.299 12.122-18.184 12.122-6.884 0-8.156-9.353-13.394-8.081-5.238 1.272-16.238 15.788-19.006 19.455-2.769 3.667 3.592 11.299 0 16.163-3.592 4.864-10.177 0-14.218 4.041-4.04 4.04-1.646 13.394-8.53 13.394-6.884 0-8.081-13.394-8.456-22.299-.374-8.904-30.829-33.224-34.495-26.714-3.667 6.51 22.747 21.775 24.319 26.714 1.571 4.939 0 5.313-4.041 8.905-4.041 3.591-4.415 10.925-12.122 13.394 2.843-12.571-23.496-40.108-28.809-40.108-5.313 0-6.435 7.258-9.728 9.728-3.292 2.469-7.782.898-15.19 3.142zm-65.25-89.795c-2.619 1.646-2.02 19.68 0 22.972 6.286 1.946 14.741-2.918 17.061-5.537 2.32-2.619.674-20.727-2.32-22.374-2.993-1.646-12.122 3.293-14.741 4.939z" fill="#E7E7E7"/><path d="M782.162 235.194c-2.215-1.676-2.32-10.85-4.639-10.85-8.156 0-7.408 10.85-7.109 15.639.299 4.789 1.497 8.306 5.388 10.177 3.891 1.87.898 5.686 1.721 10.7.823 5.013 8.156 7.707 8.156 10.925 0 3.218.673 2.619-5.837 7.408s-8.231 14.292-7.931 16.612c.299 2.319 5.612 3.517 5.612 0s5.387-6.51 11.897-6.061c6.511.449 16.538-4.789 16.986-17.959.449-13.17-16.836-16.238-16.986-19.605-.149-3.367 2.021-4.34 3.667-5.912 1.646-1.571 1.813-5.775 0-8.605-2.36-3.683-8.156-.374-10.925-2.469zm-76.623-63.229c-11.224.374-13.544 9.203-13.918 17.584 0 2.669 1.826 8.875 9.129 12.347 5.612 2.668 15.383 2.495 21.775-3.517 7.558-7.109 8.032-12.523 5.014-19.605-3.527-8.273-10.776-7.184-22-6.809zM514.203 22.306c-6.585 1.047-15.684 18.224-28.285 26.713-10.578 7.128-28.046-4.938-29.333 14.368-.663 9.952 8.381 12.646 13.395 16.537 5.013 3.89 35.842 0 43.475 2.095 7.632 2.095 35.094 31.428 37.713 39.06 2.619 7.633-.748 34.047 0 40.333.749 6.285 15.49 10.999 16.014 15.19.523 4.19-3.966 12.795-3.667 18.333.299 5.537 16.462 20.727 20.428 24.918 3.966 4.19 19.381 10.999 29.033 6.285 9.653-4.714 2.395-26.265 3.443-31.203 1.047-4.939 34.046-33 38.761-35.619 4.714-2.619 17.809-.523 25.142 0 7.333.524 17.061-14.666 19.68-19.38 2.619-4.714-1.347-25.142 0-30.904 1.347-5.762 12.272-17.285 12.272-22.523 0-5.239-8.082-13.395-8.606-21.027-.523-7.633 18.333-21.7 22.524-26.714 4.19-5.013 1.047-14.367-1.347-18.333-2.395-3.966-41.38.524-49.537 0-8.156-.524-12.795-15.714-16.462-18.857-3.666-3.142-57.393-.748-62.856 0-5.462.749-14.142 18.857-19.904 20.728-5.762 1.87-55.298-1.048-61.883 0zm-64.276 23.197c-2.918 1.795-10.251 3.142-20.877 5.163-9.428 1.793-8.531 16.163-9.428 30.605-.898 14.442-24.394 15.564-40.258 13.768-15.864-1.796-16.762-31.428-15.041-39.06 1.722-7.633 20.728-29.333 30.905-32.925 15.904-5.613 62.631-1.197 68.168 0 5.537 1.198 2.043 8.321 0 12.945-2.601 5.89-10.551 7.708-13.469 9.504zM319.276 110.23c.17-7.561 8.38-13.394 11.224-13.394 3.292 0 13.095 7.558 13.095 15.19 0 6.959-9.279 13.469-15.116 13.32-5.836-.15-9.428-5.164-9.203-15.116zm60.394 87.547c.171-7.562 8.381-13.394 11.224-13.394 3.293 0 13.095 7.557 13.095 15.19 0 6.959-9.278 13.469-15.115 13.319-5.837-.149-9.429-5.163-9.204-15.115zm52.971-95.481c-3.592-2.17-28.734-2.169-45.72 2.17-10.83 2.768-17.271 14.517-19.007 21.401-2.17 8.606 13.993 17.884 17.884 21.476 3.891 3.592 29.707.374 33.598 1.422 3.891 1.047 10.401 6.061 10.401 11.074 0 5.014-1.421 16.762 0 23.945 1.422 7.184 30.007 30.755 41.081 31.428 11.075.674 14.292-12.87 14.666-19.979.375-7.109-10.7-17.51-11.448-24.693-.749-7.184 10.401-14.966 8.605-18.932-1.796-3.966-46.468-47.142-50.06-49.312zm-90.685-9.36c.12-5.318 5.877-9.42 7.871-9.42 2.309 0 9.183 5.315 9.183 10.684 0 4.894-6.507 9.473-10.6 9.368-4.092-.105-6.611-3.632-6.454-10.632zm-33.678-39.724c6.66-4.116 34.047-4.415 40.033 0 3.128 2.306 2.694 6.21 0 9.952-2.694 3.741-35.259 32.745-41.006 33.523-7.183.973-17.061-9.279-18.034-20.204-.778-8.74 12.347-19.156 19.007-23.271zm-49.312 56.865c-21.611-21.91-47.291-21.176-55.673-14.516-8.178 6.498-13.349 16.941-2.394 26.639 13.693 12.122 51.182 5.612 51.182 5.612s18.184 17.36 47.217 18.557c15.564.642 17.585-20.204 15.564-25.067-2.02-4.864-18.033-12.871-55.896-11.225z" fill="#E7E7E7"/><path d="M76.009 213.641c10.102-3.891 46.618 1.497 58.291 3.891 20.129 19.655 61.27 60.686 64.801 67.57 4.415 8.605-2.02 107.079 0 117.705 2.021 10.626 60.088 60.835 63.53 62.556 3.442 1.721 5.537-12.421 6.51-17.135.973-4.714-32.925-35.469-27.462-41.306 5.462-5.836 58.366 52.904 62.556 58.441 4.191 5.538-.748 29.483 0 36.741.749 7.258 19.231 20.204 23.347 23.646 4.115 3.442 25.067-1.048 29.856 0 4.789 1.047 57.543 53.951 57.543 57.692 0 3.742-14.591 15.49-18.034 19.905-3.442 4.415-4.115 63.529 0 74.229 4.116 10.701 40.183 34.646 43.251 42.204 3.068 7.557 1.721 114.038 0 117.48-1.721 3.442-11.374 8.231-13.768 11.673-2.395 3.442-1.721 63.529 0 69.665 1.721 6.136 24.095 27.837 29.931 32.326 4.669 3.592 22.548 1.497 30.904 0-.124-2.07-.299-7.109 0-10.7.374-4.49-17.21-17.51-19.231-21.626-2.02-4.115-1.421-23.645 0-30.53 1.422-6.884 60.761-58.74 64.502-61.808 3.742-3.068-.972-21.999 0-28.21.973-6.211 30.605-33.598 37.115-36.367 6.51-2.768 10.626.674 21.326 0 10.701-.673 17.809-12.72 20.204-17.884 2.394-5.163-.299-51.107 0-56.944.299-5.837 13.095-11.374 15.789-15.115 2.693-3.742 1.047-41.605 0-47.441-1.048-5.837-53.577-51.856-60.087-54.251-6.511-2.394-52.53.374-56.645 0-4.116-.374-15.116-21.625-20.578-21.625h-55.298c-6.136 0-3.068 5.836-7.932 6.211-4.864.374-51.482-57.02-54.55-64.577-3.068-7.558-7.109-4.265-31.278-5.313-11.748-23.571 1.047-40.333 5.238-43.475 3.352-2.515 30.131-1.048 43.101 0 11.523 15.115 23.571 17.21 26.04 6.959 2.469-10.252-15.04-21.925-15.938-32.326-.898-10.401 17.285-22.449 21.026-25.891 3.742-3.442 3.218-11.523 3.218-21.625s37.115-22.149 36.591-38.013c-.524-15.863 12.945-27.387 15.789-30.305 2.843-2.919 25.067-1.422 31.727-2.245 6.66-.823 8.605-7.782 10.401-12.721 1.796-4.939.524-23.346 0-28.809-.524-5.462-29.707-31.952-35.468-35.169-5.762-3.218-40.333 0-44.673 0-4.34 0-10.626 12.122-14.367 18.482-3.741 6.361-.599 24.769 0 30.231.599 5.462-4.939 15.265-14.142 12.721-9.204-2.544-58.816-54.176-59.938-65.176-1.122-10.999 22.449-30.23 26.789-35.169 4.34-4.939.299-22.149 0-30.829-.3-8.68-21.027-20.428-22.748-19.007-1.721 1.422-2.844 21.401-9.803 26.041-6.959 4.639-74.604 1.571-82.386 0-7.782-1.572-10.102-17.884-17.135-24.095-7.034-6.211-59.863 0-67.645 0-7.782 0-13.17 17.884-23.272 19.455-10.102 1.572-23.346-19.455-30.38-24.917-7.034-5.463-76.175-1.572-90.916 5.462-14.742 7.034-4.64 54.4-7.034 61.434C22.282 202.791.582 207.43.582 217.532c0 10.102 22.598 32.625 38.91 33.373 16.313.749 26.415-33.373 36.517-37.264z" fill="#E7E7E7"/></svg>